<mxfile host="65bd71144e" pages="2">
    <diagram id="KJKmLV7B80y6A8qRWkbc" name="cloud diagrams">
        <mxGraphModel dx="2466" dy="585" grid="1" gridSize="10" guides="1" tooltips="1" connect="1" arrows="1" fold="1" page="1" pageScale="1" pageWidth="850" pageHeight="1100" math="0" shadow="0">
            <root>
                <mxCell id="0"/>
                <mxCell id="1" parent="0"/>
                <mxCell id="O8aFMwfuYjstY-yLZvZo-1" value="mafazaa/ainaa/ainaa-dns" style="points=[[0,0],[0.25,0],[0.5,0],[0.75,0],[1,0],[1,0.25],[1,0.5],[1,0.75],[1,1],[0.75,1],[0.5,1],[0.25,1],[0,1],[0,0.75],[0,0.5],[0,0.25]];outlineConnect=0;gradientColor=none;html=1;whiteSpace=wrap;fontSize=11;fontStyle=0;container=1;pointerEvents=0;collapsible=0;recursiveResize=0;shape=mxgraph.aws4.group;grIcon=mxgraph.aws4.group_aws_cloud_alt;strokeColor=#232F3E;fillColor=none;verticalAlign=top;align=left;spacingLeft=30;fontColor=#232F3E;dashed=0;" parent="1" vertex="1">
                    <mxGeometry x="380" y="260" width="890" height="650" as="geometry"/>
                </mxCell>
                <mxCell id="O8aFMwfuYjstY-yLZvZo-3" value="Middle East (Bahrain)&lt;div data--h-bstatus=&quot;0OBSERVED&quot;&gt;me-south-1&lt;/div&gt;" style="points=[[0,0],[0.25,0],[0.5,0],[0.75,0],[1,0],[1,0.25],[1,0.5],[1,0.75],[1,1],[0.75,1],[0.5,1],[0.25,1],[0,1],[0,0.75],[0,0.5],[0,0.25]];outlineConnect=0;gradientColor=none;html=1;whiteSpace=wrap;fontSize=11;fontStyle=0;container=1;pointerEvents=0;collapsible=0;recursiveResize=0;shape=mxgraph.aws4.group;grIcon=mxgraph.aws4.group_region;strokeColor=#00A4A6;fillColor=none;verticalAlign=top;align=left;spacingLeft=30;fontColor=#147EBA;dashed=1;" parent="O8aFMwfuYjstY-yLZvZo-1" vertex="1">
                    <mxGeometry x="20" y="50" width="860" height="590" as="geometry"/>
                </mxCell>
                <mxCell id="mzUIlvQEOGq6dSJyGh1E-40" value="me-south-1a" style="fillColor=none;strokeColor=#147EBA;dashed=1;verticalAlign=top;fontStyle=0;fontColor=#147EBA;whiteSpace=wrap;html=1;" parent="O8aFMwfuYjstY-yLZvZo-3" vertex="1">
                    <mxGeometry x="208" y="50" width="630" height="530" as="geometry"/>
                </mxCell>
                <mxCell id="mzUIlvQEOGq6dSJyGh1E-41" value="DNS&lt;div&gt;10.10.0.0/16&lt;/div&gt;" style="points=[[0,0],[0.25,0],[0.5,0],[0.75,0],[1,0],[1,0.25],[1,0.5],[1,0.75],[1,1],[0.75,1],[0.5,1],[0.25,1],[0,1],[0,0.75],[0,0.5],[0,0.25]];outlineConnect=0;gradientColor=none;html=1;whiteSpace=wrap;fontSize=12;fontStyle=0;container=1;pointerEvents=0;collapsible=0;recursiveResize=0;shape=mxgraph.aws4.group;grIcon=mxgraph.aws4.group_vpc2;strokeColor=#8C4FFF;fillColor=none;verticalAlign=top;align=left;spacingLeft=30;fontColor=#AAB7B8;dashed=0;" parent="O8aFMwfuYjstY-yLZvZo-3" vertex="1">
                    <mxGeometry x="228" y="100" width="590" height="470" as="geometry"/>
                </mxCell>
                <mxCell id="mzUIlvQEOGq6dSJyGh1E-74" value="access-db-role" style="sketch=0;outlineConnect=0;fontColor=#232F3E;gradientColor=none;fillColor=#DD344C;strokeColor=none;dashed=0;verticalLabelPosition=bottom;verticalAlign=top;align=center;html=1;fontSize=12;fontStyle=0;aspect=fixed;pointerEvents=1;shape=mxgraph.aws4.role;" parent="mzUIlvQEOGq6dSJyGh1E-41" vertex="1">
                    <mxGeometry x="260" y="242" width="53.18" height="30" as="geometry"/>
                </mxCell>
                <mxCell id="O8aFMwfuYjstY-yLZvZo-5" value="public&lt;div&gt;10.10.10.0/24&lt;/div&gt;" style="points=[[0,0],[0.25,0],[0.5,0],[0.75,0],[1,0],[1,0.25],[1,0.5],[1,0.75],[1,1],[0.75,1],[0.5,1],[0.25,1],[0,1],[0,0.75],[0,0.5],[0,0.25]];outlineConnect=0;gradientColor=none;html=1;whiteSpace=wrap;fontSize=12;fontStyle=0;container=1;pointerEvents=0;collapsible=0;recursiveResize=0;shape=mxgraph.aws4.group;grIcon=mxgraph.aws4.group_security_group;grStroke=0;strokeColor=#7AA116;fillColor=#F2F6E8;verticalAlign=top;align=left;spacingLeft=30;fontColor=#248814;dashed=0;" parent="O8aFMwfuYjstY-yLZvZo-3" vertex="1">
                    <mxGeometry x="258" y="160" width="190" height="390" as="geometry"/>
                </mxCell>
                <mxCell id="O8aFMwfuYjstY-yLZvZo-4" value="dns-servers-sg" style="fillColor=none;strokeColor=#DD3522;verticalAlign=top;fontStyle=0;fontColor=#DD3522;whiteSpace=wrap;html=1;" parent="O8aFMwfuYjstY-yLZvZo-5" vertex="1">
                    <mxGeometry x="30" y="50" width="130" height="310" as="geometry"/>
                </mxCell>
                <mxCell id="mzUIlvQEOGq6dSJyGh1E-86" value="2 high dns servers&lt;div&gt;10.10.10.10&lt;/div&gt;&lt;div&gt;10.10.10.20&lt;/div&gt;" style="sketch=0;outlineConnect=0;fontColor=#232F3E;gradientColor=none;fillColor=#ED7100;strokeColor=none;dashed=0;verticalLabelPosition=bottom;verticalAlign=top;align=center;html=1;fontSize=12;fontStyle=0;aspect=fixed;pointerEvents=1;shape=mxgraph.aws4.instances;" parent="O8aFMwfuYjstY-yLZvZo-5" vertex="1">
                    <mxGeometry x="80" y="97" width="48" height="48" as="geometry"/>
                </mxCell>
                <mxCell id="mzUIlvQEOGq6dSJyGh1E-88" value="2 low dns servers&lt;div&gt;10.10.10.30&lt;/div&gt;&lt;div&gt;10.10.10.40&lt;/div&gt;" style="sketch=0;outlineConnect=0;fontColor=#232F3E;gradientColor=none;fillColor=#ED7100;strokeColor=none;dashed=0;verticalLabelPosition=bottom;verticalAlign=top;align=center;html=1;fontSize=12;fontStyle=0;aspect=fixed;pointerEvents=1;shape=mxgraph.aws4.instances;" parent="O8aFMwfuYjstY-yLZvZo-5" vertex="1">
                    <mxGeometry x="80" y="257" width="48" height="48" as="geometry"/>
                </mxCell>
                <mxCell id="O8aFMwfuYjstY-yLZvZo-6" value="db-subnet&lt;div&gt;10.10.20.0/24&lt;/div&gt;" style="points=[[0,0],[0.25,0],[0.5,0],[0.75,0],[1,0],[1,0.25],[1,0.5],[1,0.75],[1,1],[0.75,1],[0.5,1],[0.25,1],[0,1],[0,0.75],[0,0.5],[0,0.25]];outlineConnect=0;gradientColor=none;html=1;whiteSpace=wrap;fontSize=12;fontStyle=0;container=1;pointerEvents=0;collapsible=0;recursiveResize=0;shape=mxgraph.aws4.group;grIcon=mxgraph.aws4.group_security_group;grStroke=0;strokeColor=#00A4A6;fillColor=#E6F6F7;verticalAlign=top;align=left;spacingLeft=30;fontColor=#147EBA;dashed=0;" parent="O8aFMwfuYjstY-yLZvZo-3" vertex="1">
                    <mxGeometry x="578" y="160" width="220" height="350" as="geometry"/>
                </mxCell>
                <mxCell id="mzUIlvQEOGq6dSJyGh1E-73" value="redis-cache-sg" style="fillColor=none;strokeColor=#DD3522;verticalAlign=top;fontStyle=0;fontColor=#DD3522;whiteSpace=wrap;html=1;" parent="O8aFMwfuYjstY-yLZvZo-6" vertex="1">
                    <mxGeometry x="20" y="58" width="100" height="272" as="geometry"/>
                </mxCell>
                <mxCell id="mzUIlvQEOGq6dSJyGh1E-32" value="high cache" style="sketch=0;outlineConnect=0;fontColor=#232F3E;gradientColor=none;fillColor=#C925D1;strokeColor=none;dashed=0;verticalLabelPosition=bottom;verticalAlign=top;align=center;html=1;fontSize=12;fontStyle=0;aspect=fixed;pointerEvents=1;shape=mxgraph.aws4.elasticache_for_redis;" parent="O8aFMwfuYjstY-yLZvZo-6" vertex="1">
                    <mxGeometry x="48" y="100" width="45.22" height="40" as="geometry"/>
                </mxCell>
                <mxCell id="mzUIlvQEOGq6dSJyGh1E-33" value="low cache" style="sketch=0;outlineConnect=0;fontColor=#232F3E;gradientColor=none;fillColor=#C925D1;strokeColor=none;dashed=0;verticalLabelPosition=bottom;verticalAlign=top;align=center;html=1;fontSize=12;fontStyle=0;aspect=fixed;pointerEvents=1;shape=mxgraph.aws4.elasticache_for_redis;" parent="O8aFMwfuYjstY-yLZvZo-6" vertex="1">
                    <mxGeometry x="47.389999999999986" y="262" width="45.22" height="40" as="geometry"/>
                </mxCell>
                <mxCell id="mzUIlvQEOGq6dSJyGh1E-34" value="Main DB" style="sketch=0;points=[[0,0,0],[0.25,0,0],[0.5,0,0],[0.75,0,0],[1,0,0],[0,1,0],[0.25,1,0],[0.5,1,0],[0.75,1,0],[1,1,0],[0,0.25,0],[0,0.5,0],[0,0.75,0],[1,0.25,0],[1,0.5,0],[1,0.75,0]];outlineConnect=0;fontColor=#232F3E;fillColor=#C925D1;strokeColor=#ffffff;dashed=0;verticalLabelPosition=bottom;verticalAlign=top;align=center;html=1;fontSize=12;fontStyle=0;aspect=fixed;shape=mxgraph.aws4.resourceIcon;resIcon=mxgraph.aws4.dynamodb;" parent="O8aFMwfuYjstY-yLZvZo-6" vertex="1">
                    <mxGeometry x="140" y="166" width="62" height="62" as="geometry"/>
                </mxCell>
                <mxCell id="mzUIlvQEOGq6dSJyGh1E-79" style="edgeStyle=orthogonalEdgeStyle;rounded=0;orthogonalLoop=1;jettySize=auto;html=1;" parent="O8aFMwfuYjstY-yLZvZo-3" source="mzUIlvQEOGq6dSJyGh1E-74" target="mzUIlvQEOGq6dSJyGh1E-34" edge="1">
                    <mxGeometry relative="1" as="geometry"/>
                </mxCell>
                <mxCell id="mzUIlvQEOGq6dSJyGh1E-91" style="edgeStyle=orthogonalEdgeStyle;rounded=0;orthogonalLoop=1;jettySize=auto;html=1;" parent="O8aFMwfuYjstY-yLZvZo-3" source="mzUIlvQEOGq6dSJyGh1E-86" target="mzUIlvQEOGq6dSJyGh1E-32" edge="1">
                    <mxGeometry relative="1" as="geometry"/>
                </mxCell>
                <mxCell id="mzUIlvQEOGq6dSJyGh1E-92" style="edgeStyle=orthogonalEdgeStyle;rounded=0;orthogonalLoop=1;jettySize=auto;html=1;" parent="O8aFMwfuYjstY-yLZvZo-3" source="mzUIlvQEOGq6dSJyGh1E-88" target="mzUIlvQEOGq6dSJyGh1E-33" edge="1">
                    <mxGeometry relative="1" as="geometry"/>
                </mxCell>
                <mxCell id="mzUIlvQEOGq6dSJyGh1E-106" style="edgeStyle=orthogonalEdgeStyle;rounded=0;orthogonalLoop=1;jettySize=auto;html=1;" parent="O8aFMwfuYjstY-yLZvZo-3" source="mzUIlvQEOGq6dSJyGh1E-95" target="mzUIlvQEOGq6dSJyGh1E-86" edge="1">
                    <mxGeometry relative="1" as="geometry">
                        <Array as="points">
                            <mxPoint x="178" y="365"/>
                            <mxPoint x="178" y="281"/>
                        </Array>
                    </mxGeometry>
                </mxCell>
                <mxCell id="mzUIlvQEOGq6dSJyGh1E-107" style="edgeStyle=orthogonalEdgeStyle;rounded=0;orthogonalLoop=1;jettySize=auto;html=1;" parent="O8aFMwfuYjstY-yLZvZo-3" source="mzUIlvQEOGq6dSJyGh1E-95" target="mzUIlvQEOGq6dSJyGh1E-88" edge="1">
                    <mxGeometry relative="1" as="geometry">
                        <Array as="points">
                            <mxPoint x="178" y="365"/>
                            <mxPoint x="178" y="441"/>
                        </Array>
                    </mxGeometry>
                </mxCell>
                <mxCell id="mzUIlvQEOGq6dSJyGh1E-95" value="DNS-AMI" style="outlineConnect=0;dashed=0;verticalLabelPosition=bottom;verticalAlign=top;align=center;html=1;shape=mxgraph.aws3.ami;fillColor=#F58534;gradientColor=none;" parent="O8aFMwfuYjstY-yLZvZo-3" vertex="1">
                    <mxGeometry x="108" y="343.5" width="40" height="43" as="geometry"/>
                </mxCell>
                <mxCell id="mzUIlvQEOGq6dSJyGh1E-109" style="edgeStyle=orthogonalEdgeStyle;rounded=0;orthogonalLoop=1;jettySize=auto;html=1;" parent="O8aFMwfuYjstY-yLZvZo-3" source="mzUIlvQEOGq6dSJyGh1E-62" target="mzUIlvQEOGq6dSJyGh1E-86" edge="1">
                    <mxGeometry relative="1" as="geometry">
                        <Array as="points">
                            <mxPoint x="178" y="240"/>
                            <mxPoint x="178" y="260"/>
                        </Array>
                    </mxGeometry>
                </mxCell>
                <mxCell id="mzUIlvQEOGq6dSJyGh1E-62" value="secondary-high-dns" style="sketch=0;outlineConnect=0;fontColor=#232F3E;gradientColor=none;fillColor=#ED7100;strokeColor=none;dashed=0;verticalLabelPosition=bottom;verticalAlign=top;align=center;html=1;fontSize=12;fontStyle=0;aspect=fixed;pointerEvents=1;shape=mxgraph.aws4.elastic_ip_address;direction=west;" parent="O8aFMwfuYjstY-yLZvZo-3" vertex="1">
                    <mxGeometry x="90" y="230" width="48" height="20" as="geometry"/>
                </mxCell>
                <mxCell id="mzUIlvQEOGq6dSJyGh1E-108" style="edgeStyle=orthogonalEdgeStyle;rounded=0;orthogonalLoop=1;jettySize=auto;html=1;" parent="O8aFMwfuYjstY-yLZvZo-3" source="mzUIlvQEOGq6dSJyGh1E-61" target="mzUIlvQEOGq6dSJyGh1E-86" edge="1">
                    <mxGeometry relative="1" as="geometry">
                        <Array as="points">
                            <mxPoint x="188" y="170"/>
                            <mxPoint x="188" y="260"/>
                        </Array>
                    </mxGeometry>
                </mxCell>
                <mxCell id="mzUIlvQEOGq6dSJyGh1E-61" value="primary-high-dns" style="sketch=0;outlineConnect=0;fontColor=#232F3E;gradientColor=none;fillColor=#ED7100;strokeColor=none;dashed=0;verticalLabelPosition=bottom;verticalAlign=top;align=center;html=1;fontSize=12;fontStyle=0;aspect=fixed;pointerEvents=1;shape=mxgraph.aws4.elastic_ip_address;direction=west;" parent="O8aFMwfuYjstY-yLZvZo-3" vertex="1">
                    <mxGeometry x="90" y="160" width="48" height="20" as="geometry"/>
                </mxCell>
                <mxCell id="mzUIlvQEOGq6dSJyGh1E-111" style="edgeStyle=orthogonalEdgeStyle;rounded=0;orthogonalLoop=1;jettySize=auto;html=1;" parent="O8aFMwfuYjstY-yLZvZo-3" source="mzUIlvQEOGq6dSJyGh1E-63" target="mzUIlvQEOGq6dSJyGh1E-88" edge="1">
                    <mxGeometry relative="1" as="geometry">
                        <Array as="points">
                            <mxPoint x="140" y="460"/>
                            <mxPoint x="140" y="460"/>
                        </Array>
                    </mxGeometry>
                </mxCell>
                <mxCell id="mzUIlvQEOGq6dSJyGh1E-63" value="primary-low-dns" style="sketch=0;outlineConnect=0;fontColor=#232F3E;gradientColor=none;fillColor=#ED7100;strokeColor=none;dashed=0;verticalLabelPosition=bottom;verticalAlign=top;align=center;html=1;fontSize=12;fontStyle=0;aspect=fixed;pointerEvents=1;shape=mxgraph.aws4.elastic_ip_address;direction=west;" parent="O8aFMwfuYjstY-yLZvZo-3" vertex="1">
                    <mxGeometry x="80" y="450" width="48" height="20" as="geometry"/>
                </mxCell>
                <mxCell id="mzUIlvQEOGq6dSJyGh1E-110" style="edgeStyle=orthogonalEdgeStyle;rounded=0;orthogonalLoop=1;jettySize=auto;html=1;" parent="O8aFMwfuYjstY-yLZvZo-3" source="mzUIlvQEOGq6dSJyGh1E-64" target="mzUIlvQEOGq6dSJyGh1E-88" edge="1">
                    <mxGeometry relative="1" as="geometry">
                        <Array as="points">
                            <mxPoint x="188" y="530"/>
                            <mxPoint x="188" y="460"/>
                        </Array>
                    </mxGeometry>
                </mxCell>
                <mxCell id="mzUIlvQEOGq6dSJyGh1E-64" value="secondary-low-dns" style="sketch=0;outlineConnect=0;fontColor=#232F3E;gradientColor=none;fillColor=#ED7100;strokeColor=none;dashed=0;verticalLabelPosition=bottom;verticalAlign=top;align=center;html=1;fontSize=12;fontStyle=0;aspect=fixed;pointerEvents=1;shape=mxgraph.aws4.elastic_ip_address;direction=west;" parent="O8aFMwfuYjstY-yLZvZo-3" vertex="1">
                    <mxGeometry x="80" y="520" width="48" height="20" as="geometry"/>
                </mxCell>
                <mxCell id="mzUIlvQEOGq6dSJyGh1E-93" style="edgeStyle=orthogonalEdgeStyle;rounded=0;orthogonalLoop=1;jettySize=auto;html=1;" parent="O8aFMwfuYjstY-yLZvZo-3" source="mzUIlvQEOGq6dSJyGh1E-88" target="mzUIlvQEOGq6dSJyGh1E-74" edge="1">
                    <mxGeometry relative="1" as="geometry">
                        <Array as="points">
                            <mxPoint x="428" y="440"/>
                            <mxPoint x="428" y="365"/>
                        </Array>
                    </mxGeometry>
                </mxCell>
                <mxCell id="mzUIlvQEOGq6dSJyGh1E-94" style="edgeStyle=orthogonalEdgeStyle;rounded=0;orthogonalLoop=1;jettySize=auto;html=1;" parent="O8aFMwfuYjstY-yLZvZo-3" source="mzUIlvQEOGq6dSJyGh1E-86" target="mzUIlvQEOGq6dSJyGh1E-74" edge="1">
                    <mxGeometry relative="1" as="geometry">
                        <Array as="points">
                            <mxPoint x="428" y="281"/>
                            <mxPoint x="428" y="365"/>
                        </Array>
                    </mxGeometry>
                </mxCell>
                <mxCell id="mzUIlvQEOGq6dSJyGh1E-169" value="" style="sketch=0;outlineConnect=0;fontColor=#232F3E;gradientColor=none;fillColor=#8C4FFF;strokeColor=none;dashed=0;verticalLabelPosition=bottom;verticalAlign=top;align=center;html=1;fontSize=12;fontStyle=0;aspect=fixed;pointerEvents=1;shape=mxgraph.aws4.internet_gateway;" parent="O8aFMwfuYjstY-yLZvZo-3" vertex="1">
                    <mxGeometry x="207.5" y="350" width="40" height="40" as="geometry"/>
                </mxCell>
                <mxCell id="mzUIlvQEOGq6dSJyGh1E-177" value="CloudWatch Alarms" style="sketch=0;outlineConnect=0;fontColor=#232F3E;gradientColor=none;fillColor=#E7157B;strokeColor=none;dashed=0;verticalLabelPosition=bottom;verticalAlign=top;align=center;html=1;fontSize=12;fontStyle=0;aspect=fixed;pointerEvents=1;shape=mxgraph.aws4.alarm;" parent="O8aFMwfuYjstY-yLZvZo-3" vertex="1">
                    <mxGeometry x="70" y="60" width="50" height="50" as="geometry"/>
                </mxCell>
                <mxCell id="O8aFMwfuYjstY-yLZvZo-2" value="DNS AWS Diagram" style="text;html=1;align=center;verticalAlign=middle;resizable=0;points=[];autosize=1;strokeColor=none;fillColor=none;fontSize=19;fontStyle=1" parent="1" vertex="1">
                    <mxGeometry x="720" y="200" width="190" height="40" as="geometry"/>
                </mxCell>
                <mxCell id="mzUIlvQEOGq6dSJyGh1E-1" value="" style="group" parent="1" vertex="1" connectable="0">
                    <mxGeometry x="-440" y="329.5" width="450" height="190" as="geometry"/>
                </mxCell>
                <mxCell id="mzUIlvQEOGq6dSJyGh1E-2" value="" style="rounded=0;whiteSpace=wrap;html=1;" parent="mzUIlvQEOGq6dSJyGh1E-1" vertex="1">
                    <mxGeometry width="450" height="190" as="geometry"/>
                </mxCell>
                <mxCell id="mzUIlvQEOGq6dSJyGh1E-3" value="DNS Requirements" style="text;html=1;align=center;verticalAlign=middle;whiteSpace=wrap;rounded=0;fontSize=12;fontStyle=1" parent="mzUIlvQEOGq6dSJyGh1E-1" vertex="1">
                    <mxGeometry x="135" y="10" width="180" height="30" as="geometry"/>
                </mxCell>
                <mxCell id="mzUIlvQEOGq6dSJyGh1E-4" value="1. db to store domain names&lt;br data--h-bstatus=&quot;0OBSERVED&quot;&gt;2. four seperate servers&lt;div data--h-bstatus=&quot;0OBSERVED&quot;&gt;3. an interface or api to modify database&lt;br data--h-bstatus=&quot;0OBSERVED&quot;&gt;&lt;div data--h-bstatus=&quot;0OBSERVED&quot;&gt;4. cache&lt;/div&gt;&lt;div data--h-bstatus=&quot;0OBSERVED&quot;&gt;5. an instance for jenkins&lt;/div&gt;&lt;/div&gt;" style="text;html=1;align=left;verticalAlign=middle;whiteSpace=wrap;rounded=0;fontSize=12;" parent="mzUIlvQEOGq6dSJyGh1E-1" vertex="1">
                    <mxGeometry x="10" y="80" width="180" height="70" as="geometry"/>
                </mxCell>
                <mxCell id="mzUIlvQEOGq6dSJyGh1E-5" value="Functional r&lt;span style=&quot;background-color: transparent; color: light-dark(rgb(0, 0, 0), rgb(255, 255, 255));&quot; data--h-bstatus=&quot;0OBSERVED&quot;&gt;equirements&lt;/span&gt;" style="text;html=1;align=left;verticalAlign=middle;whiteSpace=wrap;rounded=0;fontSize=12;fontStyle=1" parent="mzUIlvQEOGq6dSJyGh1E-1" vertex="1">
                    <mxGeometry x="10" y="50" width="180" height="30" as="geometry"/>
                </mxCell>
                <mxCell id="mzUIlvQEOGq6dSJyGh1E-6" value="&lt;h1 data--h-bstatus=&quot;0OBSERVED&quot; style=&quot;margin-top: 0px;&quot;&gt;&lt;span data--h-bstatus=&quot;0OBSERVED&quot; style=&quot;background-color: transparent; color: light-dark(rgb(0, 0, 0), rgb(255, 255, 255));&quot;&gt;&lt;font data--h-bstatus=&quot;0OBSERVED&quot; style=&quot;font-size: 12px;&quot;&gt;Non-functional requirements&lt;/font&gt;&lt;/span&gt;&lt;/h1&gt;&lt;h1 data--h-bstatus=&quot;0OBSERVED&quot; style=&quot;margin-top: 0px; line-height: 0%;&quot;&gt;&lt;span data--h-bstatus=&quot;0OBSERVED&quot; style=&quot;font-weight: 400;&quot;&gt;&lt;font data--h-bstatus=&quot;0OBSERVED&quot; style=&quot;font-size: 11px;&quot;&gt;1. scalability: should be easily scalable&lt;/font&gt;&lt;/span&gt;&lt;/h1&gt;&lt;h1 data--h-bstatus=&quot;0OBSERVED&quot; style=&quot;margin-top: 0px; line-height: 0%;&quot;&gt;&lt;span data--h-bstatus=&quot;0OBSERVED&quot; style=&quot;background-color: transparent; color: light-dark(rgb(0, 0, 0), rgb(255, 255, 255)); font-weight: 400;&quot;&gt;&lt;font data--h-bstatus=&quot;0OBSERVED&quot; style=&quot;font-size: 11px;&quot;&gt;2. availability: should be always available&lt;/font&gt;&lt;/span&gt;&lt;/h1&gt;&lt;h1 data--h-bstatus=&quot;0OBSERVED&quot; style=&quot;margin-top: 0px; line-height: 0%;&quot;&gt;&lt;span data--h-bstatus=&quot;0OBSERVED&quot; style=&quot;background-color: transparent; color: light-dark(rgb(0, 0, 0), rgb(255, 255, 255)); font-weight: 400;&quot;&gt;&lt;font data--h-bstatus=&quot;0OBSERVED&quot; style=&quot;font-size: 11px;&quot;&gt;3. latency: shouldn&#39;t be a bad experience&lt;/font&gt;&lt;/span&gt;&lt;/h1&gt;&lt;h1 data--h-bstatus=&quot;0OBSERVED&quot; style=&quot;margin-top: 0px; line-height: 0%;&quot;&gt;&lt;span data--h-bstatus=&quot;0OBSERVED&quot; style=&quot;background-color: transparent; color: light-dark(rgb(0, 0, 0), rgb(255, 255, 255)); font-weight: normal;&quot;&gt;&lt;font data--h-bstatus=&quot;0OBSERVED&quot; style=&quot;font-size: 11px;&quot;&gt;4. consistency: all data should be synced&lt;/font&gt;&lt;/span&gt;&lt;/h1&gt;&lt;div data--h-bstatus=&quot;0OBSERVED&quot; style=&quot;line-height: 0%;&quot;&gt;&lt;span data--h-bstatus=&quot;0OBSERVED&quot; style=&quot;background-color: transparent; color: light-dark(rgb(0, 0, 0), rgb(255, 255, 255));&quot;&gt;&lt;font data--h-bstatus=&quot;0OBSERVED&quot; style=&quot;font-size: 11px;&quot;&gt;5. calculations: high&lt;/font&gt;&lt;/span&gt;&lt;/div&gt;" style="text;html=1;whiteSpace=wrap;overflow=hidden;rounded=0;" parent="mzUIlvQEOGq6dSJyGh1E-1" vertex="1">
                    <mxGeometry x="210" y="30" width="230" height="150" as="geometry"/>
                </mxCell>
                <mxCell id="mzUIlvQEOGq6dSJyGh1E-68" style="edgeStyle=orthogonalEdgeStyle;rounded=0;orthogonalLoop=1;jettySize=auto;html=1;" parent="1" source="mzUIlvQEOGq6dSJyGh1E-52" target="mzUIlvQEOGq6dSJyGh1E-64" edge="1">
                    <mxGeometry relative="1" as="geometry">
                        <Array as="points">
                            <mxPoint x="350" y="676"/>
                            <mxPoint x="350" y="840"/>
                        </Array>
                    </mxGeometry>
                </mxCell>
                <mxCell id="mzUIlvQEOGq6dSJyGh1E-102" style="edgeStyle=orthogonalEdgeStyle;rounded=0;orthogonalLoop=1;jettySize=auto;html=1;" parent="1" source="mzUIlvQEOGq6dSJyGh1E-52" target="mzUIlvQEOGq6dSJyGh1E-61" edge="1">
                    <mxGeometry relative="1" as="geometry">
                        <Array as="points">
                            <mxPoint x="350" y="676"/>
                            <mxPoint x="350" y="480"/>
                        </Array>
                    </mxGeometry>
                </mxCell>
                <mxCell id="mzUIlvQEOGq6dSJyGh1E-103" style="edgeStyle=orthogonalEdgeStyle;rounded=0;orthogonalLoop=1;jettySize=auto;html=1;" parent="1" source="mzUIlvQEOGq6dSJyGh1E-52" target="mzUIlvQEOGq6dSJyGh1E-62" edge="1">
                    <mxGeometry relative="1" as="geometry">
                        <Array as="points">
                            <mxPoint x="350" y="676"/>
                            <mxPoint x="350" y="550"/>
                        </Array>
                    </mxGeometry>
                </mxCell>
                <mxCell id="mzUIlvQEOGq6dSJyGh1E-104" style="edgeStyle=orthogonalEdgeStyle;rounded=0;orthogonalLoop=1;jettySize=auto;html=1;" parent="1" source="mzUIlvQEOGq6dSJyGh1E-52" target="mzUIlvQEOGq6dSJyGh1E-63" edge="1">
                    <mxGeometry relative="1" as="geometry">
                        <Array as="points">
                            <mxPoint x="350" y="676"/>
                            <mxPoint x="350" y="770"/>
                        </Array>
                    </mxGeometry>
                </mxCell>
                <mxCell id="mzUIlvQEOGq6dSJyGh1E-52" value="devices" style="sketch=0;outlineConnect=0;gradientColor=none;fontColor=#545B64;strokeColor=none;fillColor=#879196;dashed=0;verticalLabelPosition=bottom;verticalAlign=top;align=center;html=1;fontSize=12;fontStyle=0;aspect=fixed;shape=mxgraph.aws4.illustration_devices;pointerEvents=1" parent="1" vertex="1">
                    <mxGeometry x="180" y="639.5" width="100" height="73" as="geometry"/>
                </mxCell>
                <mxCell id="mzUIlvQEOGq6dSJyGh1E-85" value="DNS-AMI content" style="points=[[0,0],[0.25,0],[0.5,0],[0.75,0],[1,0],[1,0.25],[1,0.5],[1,0.75],[1,1],[0.75,1],[0.5,1],[0.25,1],[0,1],[0,0.75],[0,0.5],[0,0.25]];outlineConnect=0;gradientColor=none;html=1;whiteSpace=wrap;fontSize=12;fontStyle=0;container=1;pointerEvents=0;collapsible=0;recursiveResize=0;shape=mxgraph.aws4.group;grIcon=mxgraph.aws4.group_ec2_instance_contents;strokeColor=#D86613;fillColor=none;verticalAlign=top;align=left;spacingLeft=30;fontColor=#D86613;dashed=0;" parent="1" vertex="1">
                    <mxGeometry x="370" y="930" width="140" height="80" as="geometry"/>
                </mxCell>
                <mxCell id="mzUIlvQEOGq6dSJyGh1E-96" value="&lt;div data--h-bstatus=&quot;0OBSERVED&quot;&gt;open port 53&lt;/div&gt;doh adguard server&lt;div&gt;start server as service&lt;/div&gt;" style="text;html=1;align=center;verticalAlign=middle;resizable=0;points=[];autosize=1;strokeColor=none;fillColor=none;" parent="mzUIlvQEOGq6dSJyGh1E-85" vertex="1">
                    <mxGeometry y="20" width="140" height="60" as="geometry"/>
                </mxCell>
                <mxCell id="mzUIlvQEOGq6dSJyGh1E-105" style="edgeStyle=orthogonalEdgeStyle;rounded=0;orthogonalLoop=1;jettySize=auto;html=1;entryX=0;entryY=0.5;entryDx=0;entryDy=0;entryPerimeter=0;" parent="1" source="mzUIlvQEOGq6dSJyGh1E-85" target="mzUIlvQEOGq6dSJyGh1E-95" edge="1">
                    <mxGeometry relative="1" as="geometry">
                        <Array as="points">
                            <mxPoint x="430" y="675"/>
                        </Array>
                    </mxGeometry>
                </mxCell>
                <mxCell id="mzUIlvQEOGq6dSJyGh1E-145" value="" style="sketch=0;outlineConnect=0;fontColor=#232F3E;gradientColor=none;fillColor=#ED7100;strokeColor=none;dashed=0;verticalLabelPosition=bottom;verticalAlign=top;align=center;html=1;fontSize=12;fontStyle=0;aspect=fixed;pointerEvents=1;shape=mxgraph.aws4.elastic_ip_address;" parent="1" vertex="1">
                    <mxGeometry x="1321" y="289.5" width="48" height="20" as="geometry"/>
                </mxCell>
                <mxCell id="mzUIlvQEOGq6dSJyGh1E-146" value="Elastic ip address" style="text;html=1;align=center;verticalAlign=middle;resizable=0;points=[];autosize=1;strokeColor=none;fillColor=none;" parent="1" vertex="1">
                    <mxGeometry x="1381" y="284.5" width="120" height="30" as="geometry"/>
                </mxCell>
                <mxCell id="mzUIlvQEOGq6dSJyGh1E-147" value="" style="sketch=0;outlineConnect=0;fontColor=#232F3E;gradientColor=none;fillColor=#ED7100;strokeColor=none;dashed=0;verticalLabelPosition=bottom;verticalAlign=top;align=center;html=1;fontSize=12;fontStyle=0;aspect=fixed;pointerEvents=1;shape=mxgraph.aws4.instances;" parent="1" vertex="1">
                    <mxGeometry x="1321" y="339.5" width="48" height="48" as="geometry"/>
                </mxCell>
                <mxCell id="mzUIlvQEOGq6dSJyGh1E-148" value="multiple EC2 instances" style="text;html=1;align=center;verticalAlign=middle;resizable=0;points=[];autosize=1;strokeColor=none;fillColor=none;" parent="1" vertex="1">
                    <mxGeometry x="1377" y="348.5" width="150" height="30" as="geometry"/>
                </mxCell>
                <mxCell id="mzUIlvQEOGq6dSJyGh1E-149" value="" style="sketch=0;outlineConnect=0;fontColor=#232F3E;gradientColor=none;fillColor=#C925D1;strokeColor=none;dashed=0;verticalLabelPosition=bottom;verticalAlign=top;align=center;html=1;fontSize=12;fontStyle=0;aspect=fixed;pointerEvents=1;shape=mxgraph.aws4.elasticache_for_redis;" parent="1" vertex="1">
                    <mxGeometry x="1320.48" y="538.5" width="56.52" height="50" as="geometry"/>
                </mxCell>
                <mxCell id="mzUIlvQEOGq6dSJyGh1E-150" value="Redis Elasticache" style="text;html=1;align=center;verticalAlign=middle;resizable=0;points=[];autosize=1;strokeColor=none;fillColor=none;" parent="1" vertex="1">
                    <mxGeometry x="1397" y="538.5" width="120" height="30" as="geometry"/>
                </mxCell>
                <mxCell id="mzUIlvQEOGq6dSJyGh1E-151" value="" style="sketch=0;points=[[0,0,0],[0.25,0,0],[0.5,0,0],[0.75,0,0],[1,0,0],[0,1,0],[0.25,1,0],[0.5,1,0],[0.75,1,0],[1,1,0],[0,0.25,0],[0,0.5,0],[0,0.75,0],[1,0.25,0],[1,0.5,0],[1,0.75,0]];outlineConnect=0;fontColor=#232F3E;fillColor=#C925D1;strokeColor=#ffffff;dashed=0;verticalLabelPosition=bottom;verticalAlign=top;align=center;html=1;fontSize=12;fontStyle=0;aspect=fixed;shape=mxgraph.aws4.resourceIcon;resIcon=mxgraph.aws4.dynamodb;" parent="1" vertex="1">
                    <mxGeometry x="1324" y="618.5" width="55.48" height="55.48" as="geometry"/>
                </mxCell>
                <mxCell id="mzUIlvQEOGq6dSJyGh1E-152" value="DynamoDB" style="text;html=1;align=center;verticalAlign=middle;resizable=0;points=[];autosize=1;strokeColor=none;fillColor=none;" parent="1" vertex="1">
                    <mxGeometry x="1402" y="633" width="80" height="30" as="geometry"/>
                </mxCell>
                <mxCell id="mzUIlvQEOGq6dSJyGh1E-153" value="" style="sketch=0;outlineConnect=0;fontColor=#232F3E;gradientColor=none;fillColor=#ED7100;strokeColor=none;dashed=0;verticalLabelPosition=bottom;verticalAlign=top;align=center;html=1;fontSize=12;fontStyle=0;aspect=fixed;pointerEvents=1;shape=mxgraph.aws4.spot_instance;" parent="1" vertex="1">
                    <mxGeometry x="1324.48" y="409.5" width="48" height="48" as="geometry"/>
                </mxCell>
                <mxCell id="mzUIlvQEOGq6dSJyGh1E-154" value="spot instance" style="text;html=1;align=center;verticalAlign=middle;resizable=0;points=[];autosize=1;strokeColor=none;fillColor=none;" parent="1" vertex="1">
                    <mxGeometry x="1396" y="419.5" width="90" height="30" as="geometry"/>
                </mxCell>
                <mxCell id="mzUIlvQEOGq6dSJyGh1E-155" value="" style="sketch=0;outlineConnect=0;fontColor=#232F3E;gradientColor=none;fillColor=#DD344C;strokeColor=none;dashed=0;verticalLabelPosition=bottom;verticalAlign=top;align=center;html=1;fontSize=12;fontStyle=0;aspect=fixed;pointerEvents=1;shape=mxgraph.aws4.role;" parent="1" vertex="1">
                    <mxGeometry x="1327" y="698.5" width="70.91" height="40" as="geometry"/>
                </mxCell>
                <mxCell id="mzUIlvQEOGq6dSJyGh1E-156" value="IAM Role" style="text;html=1;align=center;verticalAlign=middle;resizable=0;points=[];autosize=1;strokeColor=none;fillColor=none;" parent="1" vertex="1">
                    <mxGeometry x="1412" y="698.5" width="70" height="30" as="geometry"/>
                </mxCell>
                <mxCell id="mzUIlvQEOGq6dSJyGh1E-157" value="Security group" style="fillColor=none;strokeColor=#DD3522;verticalAlign=top;fontStyle=0;fontColor=#DD3522;whiteSpace=wrap;html=1;" parent="1" vertex="1">
                    <mxGeometry x="1320" y="768.5" width="87" height="40" as="geometry"/>
                </mxCell>
                <mxCell id="mzUIlvQEOGq6dSJyGh1E-158" value="Security group" style="text;html=1;align=center;verticalAlign=middle;resizable=0;points=[];autosize=1;strokeColor=none;fillColor=none;" parent="1" vertex="1">
                    <mxGeometry x="1414" y="771.5" width="100" height="30" as="geometry"/>
                </mxCell>
                <mxCell id="mzUIlvQEOGq6dSJyGh1E-159" value="" style="outlineConnect=0;dashed=0;verticalLabelPosition=bottom;verticalAlign=top;align=center;html=1;shape=mxgraph.aws3.ami;fillColor=#F58534;gradientColor=none;" parent="1" vertex="1">
                    <mxGeometry x="1325.48" y="468.5" width="46.52" height="51" as="geometry"/>
                </mxCell>
                <mxCell id="mzUIlvQEOGq6dSJyGh1E-160" value="AMI image" style="text;html=1;align=center;verticalAlign=middle;resizable=0;points=[];autosize=1;strokeColor=none;fillColor=none;" parent="1" vertex="1">
                    <mxGeometry x="1397.91" y="479" width="80" height="30" as="geometry"/>
                </mxCell>
                <mxCell id="mzUIlvQEOGq6dSJyGh1E-164" value="Public subnet" style="points=[[0,0],[0.25,0],[0.5,0],[0.75,0],[1,0],[1,0.25],[1,0.5],[1,0.75],[1,1],[0.75,1],[0.5,1],[0.25,1],[0,1],[0,0.75],[0,0.5],[0,0.25]];outlineConnect=0;gradientColor=none;html=1;whiteSpace=wrap;fontSize=12;fontStyle=0;container=1;pointerEvents=0;collapsible=0;recursiveResize=0;shape=mxgraph.aws4.group;grIcon=mxgraph.aws4.group_security_group;grStroke=0;strokeColor=#7AA116;fillColor=#F2F6E8;verticalAlign=top;align=left;spacingLeft=30;fontColor=#248814;dashed=0;" parent="1" vertex="1">
                    <mxGeometry x="1320" y="828.5" width="103" height="50" as="geometry"/>
                </mxCell>
                <mxCell id="mzUIlvQEOGq6dSJyGh1E-165" value="Private subnet" style="points=[[0,0],[0.25,0],[0.5,0],[0.75,0],[1,0],[1,0.25],[1,0.5],[1,0.75],[1,1],[0.75,1],[0.5,1],[0.25,1],[0,1],[0,0.75],[0,0.5],[0,0.25]];outlineConnect=0;gradientColor=none;html=1;whiteSpace=wrap;fontSize=12;fontStyle=0;container=1;pointerEvents=0;collapsible=0;recursiveResize=0;shape=mxgraph.aws4.group;grIcon=mxgraph.aws4.group_security_group;grStroke=0;strokeColor=#00A4A6;fillColor=#E6F6F7;verticalAlign=top;align=left;spacingLeft=30;fontColor=#147EBA;dashed=0;" parent="1" vertex="1">
                    <mxGeometry x="1324" y="911.5" width="93" height="47" as="geometry"/>
                </mxCell>
                <mxCell id="mzUIlvQEOGq6dSJyGh1E-167" value="Internet gateway" style="text;html=1;align=center;verticalAlign=middle;resizable=0;points=[];autosize=1;strokeColor=none;fillColor=none;" parent="1" vertex="1">
                    <mxGeometry x="1387" y="990.5" width="110" height="30" as="geometry"/>
                </mxCell>
                <mxCell id="mzUIlvQEOGq6dSJyGh1E-170" value="" style="sketch=0;outlineConnect=0;fontColor=#232F3E;gradientColor=none;fillColor=#8C4FFF;strokeColor=none;dashed=0;verticalLabelPosition=bottom;verticalAlign=top;align=center;html=1;fontSize=12;fontStyle=0;aspect=fixed;pointerEvents=1;shape=mxgraph.aws4.internet_gateway;" parent="1" vertex="1">
                    <mxGeometry x="1324.48" y="985.5" width="40" height="40" as="geometry"/>
                </mxCell>
                <mxCell id="83Sx4xnXRW2-ucipicmq-1" value="mafazaa/ainaa/ainaa-dns" style="points=[[0,0],[0.25,0],[0.5,0],[0.75,0],[1,0],[1,0.25],[1,0.5],[1,0.75],[1,1],[0.75,1],[0.5,1],[0.25,1],[0,1],[0,0.75],[0,0.5],[0,0.25]];outlineConnect=0;gradientColor=none;html=1;whiteSpace=wrap;fontSize=11;fontStyle=0;container=1;pointerEvents=0;collapsible=0;recursiveResize=0;shape=mxgraph.aws4.group;grIcon=mxgraph.aws4.group_aws_cloud_alt;strokeColor=#232F3E;fillColor=none;verticalAlign=top;align=left;spacingLeft=30;fontColor=#232F3E;dashed=0;" parent="1" vertex="1">
                    <mxGeometry x="-1450" y="230" width="520" height="650" as="geometry"/>
                </mxCell>
                <mxCell id="83Sx4xnXRW2-ucipicmq-2" value="Middle East (Bahrain)&lt;div data--h-bstatus=&quot;0OBSERVED&quot;&gt;me-south-1&lt;/div&gt;" style="points=[[0,0],[0.25,0],[0.5,0],[0.75,0],[1,0],[1,0.25],[1,0.5],[1,0.75],[1,1],[0.75,1],[0.5,1],[0.25,1],[0,1],[0,0.75],[0,0.5],[0,0.25]];outlineConnect=0;gradientColor=none;html=1;whiteSpace=wrap;fontSize=11;fontStyle=0;container=1;pointerEvents=0;collapsible=0;recursiveResize=0;shape=mxgraph.aws4.group;grIcon=mxgraph.aws4.group_region;strokeColor=#00A4A6;fillColor=none;verticalAlign=top;align=left;spacingLeft=30;fontColor=#147EBA;dashed=1;" parent="83Sx4xnXRW2-ucipicmq-1" vertex="1">
                    <mxGeometry x="20" y="50" width="490" height="590" as="geometry"/>
                </mxCell>
                <mxCell id="83Sx4xnXRW2-ucipicmq-3" value="me-south-1a" style="fillColor=none;strokeColor=#147EBA;dashed=1;verticalAlign=top;fontStyle=0;fontColor=#147EBA;whiteSpace=wrap;html=1;" parent="83Sx4xnXRW2-ucipicmq-2" vertex="1">
                    <mxGeometry x="208" y="50" width="272" height="530" as="geometry"/>
                </mxCell>
                <mxCell id="83Sx4xnXRW2-ucipicmq-4" value="DNS&lt;div&gt;10.10.0.0/16&lt;/div&gt;" style="points=[[0,0],[0.25,0],[0.5,0],[0.75,0],[1,0],[1,0.25],[1,0.5],[1,0.75],[1,1],[0.75,1],[0.5,1],[0.25,1],[0,1],[0,0.75],[0,0.5],[0,0.25]];outlineConnect=0;gradientColor=none;html=1;whiteSpace=wrap;fontSize=12;fontStyle=0;container=1;pointerEvents=0;collapsible=0;recursiveResize=0;shape=mxgraph.aws4.group;grIcon=mxgraph.aws4.group_vpc2;strokeColor=#8C4FFF;fillColor=none;verticalAlign=top;align=left;spacingLeft=30;fontColor=#AAB7B8;dashed=0;" parent="83Sx4xnXRW2-ucipicmq-2" vertex="1">
                    <mxGeometry x="228" y="100" width="242" height="470" as="geometry"/>
                </mxCell>
                <mxCell id="83Sx4xnXRW2-ucipicmq-6" value="public&lt;div&gt;10.10.0.0/24&lt;/div&gt;" style="points=[[0,0],[0.25,0],[0.5,0],[0.75,0],[1,0],[1,0.25],[1,0.5],[1,0.75],[1,1],[0.75,1],[0.5,1],[0.25,1],[0,1],[0,0.75],[0,0.5],[0,0.25]];outlineConnect=0;gradientColor=none;html=1;whiteSpace=wrap;fontSize=12;fontStyle=0;container=1;pointerEvents=0;collapsible=0;recursiveResize=0;shape=mxgraph.aws4.group;grIcon=mxgraph.aws4.group_security_group;grStroke=0;strokeColor=#7AA116;fillColor=#F2F6E8;verticalAlign=top;align=left;spacingLeft=30;fontColor=#248814;dashed=0;" parent="83Sx4xnXRW2-ucipicmq-2" vertex="1">
                    <mxGeometry x="258" y="160" width="190" height="390" as="geometry"/>
                </mxCell>
                <mxCell id="83Sx4xnXRW2-ucipicmq-7" value="dns-servers-sg" style="fillColor=none;strokeColor=#DD3522;verticalAlign=top;fontStyle=0;fontColor=#DD3522;whiteSpace=wrap;html=1;" parent="83Sx4xnXRW2-ucipicmq-6" vertex="1">
                    <mxGeometry x="30" y="40" width="130" height="320" as="geometry"/>
                </mxCell>
                <mxCell id="83Sx4xnXRW2-ucipicmq-64" style="edgeStyle=none;html=1;" parent="83Sx4xnXRW2-ucipicmq-6" source="83Sx4xnXRW2-ucipicmq-8" target="83Sx4xnXRW2-ucipicmq-63" edge="1">
                    <mxGeometry relative="1" as="geometry"/>
                </mxCell>
                <mxCell id="83Sx4xnXRW2-ucipicmq-8" value="2 high dns servers&lt;div&gt;10.10.0.10&lt;/div&gt;&lt;div&gt;10.10.0.20&lt;/div&gt;" style="sketch=0;outlineConnect=0;fontColor=#232F3E;gradientColor=none;fillColor=#ED7100;strokeColor=none;dashed=0;verticalLabelPosition=bottom;verticalAlign=top;align=center;html=1;fontSize=12;fontStyle=0;aspect=fixed;pointerEvents=1;shape=mxgraph.aws4.instances;" parent="83Sx4xnXRW2-ucipicmq-6" vertex="1">
                    <mxGeometry x="80" y="70" width="48" height="48" as="geometry"/>
                </mxCell>
                <mxCell id="83Sx4xnXRW2-ucipicmq-65" style="edgeStyle=none;html=1;" parent="83Sx4xnXRW2-ucipicmq-6" source="83Sx4xnXRW2-ucipicmq-9" target="83Sx4xnXRW2-ucipicmq-63" edge="1">
                    <mxGeometry relative="1" as="geometry"/>
                </mxCell>
                <mxCell id="83Sx4xnXRW2-ucipicmq-9" value="2 low dns servers&lt;div&gt;10.10.0.30&lt;/div&gt;&lt;div&gt;10.10.0.40&lt;/div&gt;" style="sketch=0;outlineConnect=0;fontColor=#232F3E;gradientColor=none;fillColor=#ED7100;strokeColor=none;dashed=0;verticalLabelPosition=bottom;verticalAlign=top;align=center;html=1;fontSize=12;fontStyle=0;aspect=fixed;pointerEvents=1;shape=mxgraph.aws4.instances;" parent="83Sx4xnXRW2-ucipicmq-6" vertex="1">
                    <mxGeometry x="80" y="257" width="48" height="48" as="geometry"/>
                </mxCell>
                <mxCell id="83Sx4xnXRW2-ucipicmq-63" value="dns-server role" style="sketch=0;outlineConnect=0;fontColor=#232F3E;gradientColor=none;fillColor=#DD344C;strokeColor=none;dashed=0;verticalLabelPosition=bottom;verticalAlign=top;align=center;html=1;fontSize=12;fontStyle=0;aspect=fixed;pointerEvents=1;shape=mxgraph.aws4.role;" parent="83Sx4xnXRW2-ucipicmq-6" vertex="1">
                    <mxGeometry x="77" y="190" width="53.18" height="30" as="geometry"/>
                </mxCell>
                <mxCell id="83Sx4xnXRW2-ucipicmq-18" style="edgeStyle=orthogonalEdgeStyle;rounded=0;orthogonalLoop=1;jettySize=auto;html=1;" parent="83Sx4xnXRW2-ucipicmq-2" source="83Sx4xnXRW2-ucipicmq-20" target="83Sx4xnXRW2-ucipicmq-8" edge="1">
                    <mxGeometry relative="1" as="geometry">
                        <Array as="points">
                            <mxPoint x="178" y="365"/>
                            <mxPoint x="178" y="281"/>
                        </Array>
                    </mxGeometry>
                </mxCell>
                <mxCell id="83Sx4xnXRW2-ucipicmq-19" style="edgeStyle=orthogonalEdgeStyle;rounded=0;orthogonalLoop=1;jettySize=auto;html=1;" parent="83Sx4xnXRW2-ucipicmq-2" source="83Sx4xnXRW2-ucipicmq-20" target="83Sx4xnXRW2-ucipicmq-9" edge="1">
                    <mxGeometry relative="1" as="geometry">
                        <Array as="points">
                            <mxPoint x="178" y="365"/>
                            <mxPoint x="178" y="441"/>
                        </Array>
                    </mxGeometry>
                </mxCell>
                <mxCell id="83Sx4xnXRW2-ucipicmq-20" value="DNS-AMI" style="outlineConnect=0;dashed=0;verticalLabelPosition=bottom;verticalAlign=top;align=center;html=1;shape=mxgraph.aws3.ami;fillColor=#F58534;gradientColor=none;" parent="83Sx4xnXRW2-ucipicmq-2" vertex="1">
                    <mxGeometry x="108" y="343.5" width="40" height="43" as="geometry"/>
                </mxCell>
                <mxCell id="83Sx4xnXRW2-ucipicmq-21" style="edgeStyle=orthogonalEdgeStyle;rounded=0;orthogonalLoop=1;jettySize=auto;html=1;" parent="83Sx4xnXRW2-ucipicmq-2" source="83Sx4xnXRW2-ucipicmq-22" target="83Sx4xnXRW2-ucipicmq-8" edge="1">
                    <mxGeometry relative="1" as="geometry">
                        <Array as="points">
                            <mxPoint x="178" y="240"/>
                            <mxPoint x="178" y="260"/>
                        </Array>
                    </mxGeometry>
                </mxCell>
                <mxCell id="83Sx4xnXRW2-ucipicmq-22" value="secondary-high-dns" style="sketch=0;outlineConnect=0;fontColor=#232F3E;gradientColor=none;fillColor=#ED7100;strokeColor=none;dashed=0;verticalLabelPosition=bottom;verticalAlign=top;align=center;html=1;fontSize=12;fontStyle=0;aspect=fixed;pointerEvents=1;shape=mxgraph.aws4.elastic_ip_address;direction=west;" parent="83Sx4xnXRW2-ucipicmq-2" vertex="1">
                    <mxGeometry x="90" y="230" width="48" height="20" as="geometry"/>
                </mxCell>
                <mxCell id="83Sx4xnXRW2-ucipicmq-23" style="edgeStyle=orthogonalEdgeStyle;rounded=0;orthogonalLoop=1;jettySize=auto;html=1;" parent="83Sx4xnXRW2-ucipicmq-2" source="83Sx4xnXRW2-ucipicmq-24" target="83Sx4xnXRW2-ucipicmq-8" edge="1">
                    <mxGeometry relative="1" as="geometry">
                        <Array as="points">
                            <mxPoint x="188" y="170"/>
                            <mxPoint x="188" y="260"/>
                        </Array>
                    </mxGeometry>
                </mxCell>
                <mxCell id="83Sx4xnXRW2-ucipicmq-24" value="primary-high-dns" style="sketch=0;outlineConnect=0;fontColor=#232F3E;gradientColor=none;fillColor=#ED7100;strokeColor=none;dashed=0;verticalLabelPosition=bottom;verticalAlign=top;align=center;html=1;fontSize=12;fontStyle=0;aspect=fixed;pointerEvents=1;shape=mxgraph.aws4.elastic_ip_address;direction=west;" parent="83Sx4xnXRW2-ucipicmq-2" vertex="1">
                    <mxGeometry x="90" y="160" width="48" height="20" as="geometry"/>
                </mxCell>
                <mxCell id="83Sx4xnXRW2-ucipicmq-25" style="edgeStyle=orthogonalEdgeStyle;rounded=0;orthogonalLoop=1;jettySize=auto;html=1;" parent="83Sx4xnXRW2-ucipicmq-2" source="83Sx4xnXRW2-ucipicmq-26" target="83Sx4xnXRW2-ucipicmq-9" edge="1">
                    <mxGeometry relative="1" as="geometry">
                        <Array as="points">
                            <mxPoint x="140" y="460"/>
                            <mxPoint x="140" y="460"/>
                        </Array>
                    </mxGeometry>
                </mxCell>
                <mxCell id="83Sx4xnXRW2-ucipicmq-26" value="primary-low-dns" style="sketch=0;outlineConnect=0;fontColor=#232F3E;gradientColor=none;fillColor=#ED7100;strokeColor=none;dashed=0;verticalLabelPosition=bottom;verticalAlign=top;align=center;html=1;fontSize=12;fontStyle=0;aspect=fixed;pointerEvents=1;shape=mxgraph.aws4.elastic_ip_address;direction=west;" parent="83Sx4xnXRW2-ucipicmq-2" vertex="1">
                    <mxGeometry x="80" y="450" width="48" height="20" as="geometry"/>
                </mxCell>
                <mxCell id="83Sx4xnXRW2-ucipicmq-27" style="edgeStyle=orthogonalEdgeStyle;rounded=0;orthogonalLoop=1;jettySize=auto;html=1;" parent="83Sx4xnXRW2-ucipicmq-2" source="83Sx4xnXRW2-ucipicmq-28" target="83Sx4xnXRW2-ucipicmq-9" edge="1">
                    <mxGeometry relative="1" as="geometry">
                        <Array as="points">
                            <mxPoint x="188" y="530"/>
                            <mxPoint x="188" y="460"/>
                        </Array>
                    </mxGeometry>
                </mxCell>
                <mxCell id="83Sx4xnXRW2-ucipicmq-28" value="secondary-low-dns" style="sketch=0;outlineConnect=0;fontColor=#232F3E;gradientColor=none;fillColor=#ED7100;strokeColor=none;dashed=0;verticalLabelPosition=bottom;verticalAlign=top;align=center;html=1;fontSize=12;fontStyle=0;aspect=fixed;pointerEvents=1;shape=mxgraph.aws4.elastic_ip_address;direction=west;" parent="83Sx4xnXRW2-ucipicmq-2" vertex="1">
                    <mxGeometry x="80" y="520" width="48" height="20" as="geometry"/>
                </mxCell>
                <mxCell id="83Sx4xnXRW2-ucipicmq-31" value="" style="sketch=0;outlineConnect=0;fontColor=#232F3E;gradientColor=none;fillColor=#8C4FFF;strokeColor=none;dashed=0;verticalLabelPosition=bottom;verticalAlign=top;align=center;html=1;fontSize=12;fontStyle=0;aspect=fixed;pointerEvents=1;shape=mxgraph.aws4.internet_gateway;" parent="83Sx4xnXRW2-ucipicmq-2" vertex="1">
                    <mxGeometry x="207.5" y="350" width="40" height="40" as="geometry"/>
                </mxCell>
                <mxCell id="83Sx4xnXRW2-ucipicmq-32" value="CloudWatch Alarms" style="sketch=0;outlineConnect=0;fontColor=#232F3E;gradientColor=none;fillColor=#E7157B;strokeColor=none;dashed=0;verticalLabelPosition=bottom;verticalAlign=top;align=center;html=1;fontSize=12;fontStyle=0;aspect=fixed;pointerEvents=1;shape=mxgraph.aws4.alarm;" parent="83Sx4xnXRW2-ucipicmq-2" vertex="1">
                    <mxGeometry x="70" y="60" width="50" height="50" as="geometry"/>
                </mxCell>
                <mxCell id="83Sx4xnXRW2-ucipicmq-33" value="DNS AWS Diagram (MVP)" style="text;html=1;align=center;verticalAlign=middle;resizable=0;points=[];autosize=1;strokeColor=none;fillColor=none;fontSize=19;fontStyle=1" parent="1" vertex="1">
                    <mxGeometry x="-1305" y="170" width="250" height="40" as="geometry"/>
                </mxCell>
                <mxCell id="83Sx4xnXRW2-ucipicmq-34" style="edgeStyle=orthogonalEdgeStyle;rounded=0;orthogonalLoop=1;jettySize=auto;html=1;" parent="1" source="83Sx4xnXRW2-ucipicmq-38" target="83Sx4xnXRW2-ucipicmq-28" edge="1">
                    <mxGeometry relative="1" as="geometry">
                        <Array as="points">
                            <mxPoint x="-1480" y="646"/>
                            <mxPoint x="-1480" y="810"/>
                        </Array>
                    </mxGeometry>
                </mxCell>
                <mxCell id="83Sx4xnXRW2-ucipicmq-35" style="edgeStyle=orthogonalEdgeStyle;rounded=0;orthogonalLoop=1;jettySize=auto;html=1;" parent="1" source="83Sx4xnXRW2-ucipicmq-38" target="83Sx4xnXRW2-ucipicmq-24" edge="1">
                    <mxGeometry relative="1" as="geometry">
                        <Array as="points">
                            <mxPoint x="-1480" y="646"/>
                            <mxPoint x="-1480" y="450"/>
                        </Array>
                    </mxGeometry>
                </mxCell>
                <mxCell id="83Sx4xnXRW2-ucipicmq-36" style="edgeStyle=orthogonalEdgeStyle;rounded=0;orthogonalLoop=1;jettySize=auto;html=1;" parent="1" source="83Sx4xnXRW2-ucipicmq-38" target="83Sx4xnXRW2-ucipicmq-22" edge="1">
                    <mxGeometry relative="1" as="geometry">
                        <Array as="points">
                            <mxPoint x="-1480" y="646"/>
                            <mxPoint x="-1480" y="520"/>
                        </Array>
                    </mxGeometry>
                </mxCell>
                <mxCell id="83Sx4xnXRW2-ucipicmq-37" style="edgeStyle=orthogonalEdgeStyle;rounded=0;orthogonalLoop=1;jettySize=auto;html=1;" parent="1" source="83Sx4xnXRW2-ucipicmq-38" target="83Sx4xnXRW2-ucipicmq-26" edge="1">
                    <mxGeometry relative="1" as="geometry">
                        <Array as="points">
                            <mxPoint x="-1480" y="646"/>
                            <mxPoint x="-1480" y="740"/>
                        </Array>
                    </mxGeometry>
                </mxCell>
                <mxCell id="83Sx4xnXRW2-ucipicmq-38" value="devices" style="sketch=0;outlineConnect=0;gradientColor=none;fontColor=#545B64;strokeColor=none;fillColor=#879196;dashed=0;verticalLabelPosition=bottom;verticalAlign=top;align=center;html=1;fontSize=12;fontStyle=0;aspect=fixed;shape=mxgraph.aws4.illustration_devices;pointerEvents=1" parent="1" vertex="1">
                    <mxGeometry x="-1650" y="609.5" width="100" height="73" as="geometry"/>
                </mxCell>
                <mxCell id="83Sx4xnXRW2-ucipicmq-39" value="DNS-AMI content" style="points=[[0,0],[0.25,0],[0.5,0],[0.75,0],[1,0],[1,0.25],[1,0.5],[1,0.75],[1,1],[0.75,1],[0.5,1],[0.25,1],[0,1],[0,0.75],[0,0.5],[0,0.25]];outlineConnect=0;gradientColor=none;html=1;whiteSpace=wrap;fontSize=12;fontStyle=0;container=1;pointerEvents=0;collapsible=0;recursiveResize=0;shape=mxgraph.aws4.group;grIcon=mxgraph.aws4.group_ec2_instance_contents;strokeColor=#D86613;fillColor=none;verticalAlign=top;align=left;spacingLeft=30;fontColor=#D86613;dashed=0;" parent="1" vertex="1">
                    <mxGeometry x="-1460" y="900" width="140" height="80" as="geometry"/>
                </mxCell>
                <mxCell id="83Sx4xnXRW2-ucipicmq-40" value="&lt;div data--h-bstatus=&quot;0OBSERVED&quot;&gt;open port 53&lt;/div&gt;doh adguard server&lt;div&gt;start server as service&lt;/div&gt;" style="text;html=1;align=center;verticalAlign=middle;resizable=0;points=[];autosize=1;strokeColor=none;fillColor=none;" parent="83Sx4xnXRW2-ucipicmq-39" vertex="1">
                    <mxGeometry y="20" width="140" height="60" as="geometry"/>
                </mxCell>
                <mxCell id="83Sx4xnXRW2-ucipicmq-41" style="edgeStyle=orthogonalEdgeStyle;rounded=0;orthogonalLoop=1;jettySize=auto;html=1;entryX=0;entryY=0.5;entryDx=0;entryDy=0;entryPerimeter=0;" parent="1" source="83Sx4xnXRW2-ucipicmq-39" target="83Sx4xnXRW2-ucipicmq-20" edge="1">
                    <mxGeometry relative="1" as="geometry">
                        <Array as="points">
                            <mxPoint x="-1400" y="645"/>
                        </Array>
                    </mxGeometry>
                </mxCell>
                <mxCell id="83Sx4xnXRW2-ucipicmq-42" value="" style="sketch=0;outlineConnect=0;fontColor=#232F3E;gradientColor=none;fillColor=#ED7100;strokeColor=none;dashed=0;verticalLabelPosition=bottom;verticalAlign=top;align=center;html=1;fontSize=12;fontStyle=0;aspect=fixed;pointerEvents=1;shape=mxgraph.aws4.elastic_ip_address;" parent="1" vertex="1">
                    <mxGeometry x="-859" y="259.5" width="48" height="20" as="geometry"/>
                </mxCell>
                <mxCell id="83Sx4xnXRW2-ucipicmq-43" value="Elastic ip address" style="text;html=1;align=center;verticalAlign=middle;resizable=0;points=[];autosize=1;strokeColor=none;fillColor=none;" parent="1" vertex="1">
                    <mxGeometry x="-799" y="254.5" width="120" height="30" as="geometry"/>
                </mxCell>
                <mxCell id="83Sx4xnXRW2-ucipicmq-44" value="" style="sketch=0;outlineConnect=0;fontColor=#232F3E;gradientColor=none;fillColor=#ED7100;strokeColor=none;dashed=0;verticalLabelPosition=bottom;verticalAlign=top;align=center;html=1;fontSize=12;fontStyle=0;aspect=fixed;pointerEvents=1;shape=mxgraph.aws4.instances;" parent="1" vertex="1">
                    <mxGeometry x="-859" y="309.5" width="48" height="48" as="geometry"/>
                </mxCell>
                <mxCell id="83Sx4xnXRW2-ucipicmq-45" value="multiple EC2 instances" style="text;html=1;align=center;verticalAlign=middle;resizable=0;points=[];autosize=1;strokeColor=none;fillColor=none;" parent="1" vertex="1">
                    <mxGeometry x="-803" y="318.5" width="150" height="30" as="geometry"/>
                </mxCell>
                <mxCell id="83Sx4xnXRW2-ucipicmq-46" value="" style="sketch=0;outlineConnect=0;fontColor=#232F3E;gradientColor=none;fillColor=#C925D1;strokeColor=none;dashed=0;verticalLabelPosition=bottom;verticalAlign=top;align=center;html=1;fontSize=12;fontStyle=0;aspect=fixed;pointerEvents=1;shape=mxgraph.aws4.elasticache_for_redis;" parent="1" vertex="1">
                    <mxGeometry x="-859.52" y="508.5" width="56.52" height="50" as="geometry"/>
                </mxCell>
                <mxCell id="83Sx4xnXRW2-ucipicmq-47" value="Redis Elasticache" style="text;html=1;align=center;verticalAlign=middle;resizable=0;points=[];autosize=1;strokeColor=none;fillColor=none;" parent="1" vertex="1">
                    <mxGeometry x="-783" y="508.5" width="120" height="30" as="geometry"/>
                </mxCell>
                <mxCell id="83Sx4xnXRW2-ucipicmq-48" value="" style="sketch=0;points=[[0,0,0],[0.25,0,0],[0.5,0,0],[0.75,0,0],[1,0,0],[0,1,0],[0.25,1,0],[0.5,1,0],[0.75,1,0],[1,1,0],[0,0.25,0],[0,0.5,0],[0,0.75,0],[1,0.25,0],[1,0.5,0],[1,0.75,0]];outlineConnect=0;fontColor=#232F3E;fillColor=#C925D1;strokeColor=#ffffff;dashed=0;verticalLabelPosition=bottom;verticalAlign=top;align=center;html=1;fontSize=12;fontStyle=0;aspect=fixed;shape=mxgraph.aws4.resourceIcon;resIcon=mxgraph.aws4.dynamodb;" parent="1" vertex="1">
                    <mxGeometry x="-856" y="588.5" width="55.48" height="55.48" as="geometry"/>
                </mxCell>
                <mxCell id="83Sx4xnXRW2-ucipicmq-49" value="DynamoDB" style="text;html=1;align=center;verticalAlign=middle;resizable=0;points=[];autosize=1;strokeColor=none;fillColor=none;" parent="1" vertex="1">
                    <mxGeometry x="-778" y="603" width="80" height="30" as="geometry"/>
                </mxCell>
                <mxCell id="83Sx4xnXRW2-ucipicmq-50" value="" style="sketch=0;outlineConnect=0;fontColor=#232F3E;gradientColor=none;fillColor=#ED7100;strokeColor=none;dashed=0;verticalLabelPosition=bottom;verticalAlign=top;align=center;html=1;fontSize=12;fontStyle=0;aspect=fixed;pointerEvents=1;shape=mxgraph.aws4.spot_instance;" parent="1" vertex="1">
                    <mxGeometry x="-855.52" y="379.5" width="48" height="48" as="geometry"/>
                </mxCell>
                <mxCell id="83Sx4xnXRW2-ucipicmq-51" value="spot instance" style="text;html=1;align=center;verticalAlign=middle;resizable=0;points=[];autosize=1;strokeColor=none;fillColor=none;" parent="1" vertex="1">
                    <mxGeometry x="-784" y="389.5" width="90" height="30" as="geometry"/>
                </mxCell>
                <mxCell id="83Sx4xnXRW2-ucipicmq-52" value="" style="sketch=0;outlineConnect=0;fontColor=#232F3E;gradientColor=none;fillColor=#DD344C;strokeColor=none;dashed=0;verticalLabelPosition=bottom;verticalAlign=top;align=center;html=1;fontSize=12;fontStyle=0;aspect=fixed;pointerEvents=1;shape=mxgraph.aws4.role;" parent="1" vertex="1">
                    <mxGeometry x="-853" y="668.5" width="70.91" height="40" as="geometry"/>
                </mxCell>
                <mxCell id="83Sx4xnXRW2-ucipicmq-53" value="IAM Role" style="text;html=1;align=center;verticalAlign=middle;resizable=0;points=[];autosize=1;strokeColor=none;fillColor=none;" parent="1" vertex="1">
                    <mxGeometry x="-768" y="668.5" width="70" height="30" as="geometry"/>
                </mxCell>
                <mxCell id="83Sx4xnXRW2-ucipicmq-54" value="Security group" style="fillColor=none;strokeColor=#DD3522;verticalAlign=top;fontStyle=0;fontColor=#DD3522;whiteSpace=wrap;html=1;" parent="1" vertex="1">
                    <mxGeometry x="-860" y="738.5" width="87" height="40" as="geometry"/>
                </mxCell>
                <mxCell id="83Sx4xnXRW2-ucipicmq-55" value="Security group" style="text;html=1;align=center;verticalAlign=middle;resizable=0;points=[];autosize=1;strokeColor=none;fillColor=none;" parent="1" vertex="1">
                    <mxGeometry x="-766" y="741.5" width="100" height="30" as="geometry"/>
                </mxCell>
                <mxCell id="83Sx4xnXRW2-ucipicmq-56" value="" style="outlineConnect=0;dashed=0;verticalLabelPosition=bottom;verticalAlign=top;align=center;html=1;shape=mxgraph.aws3.ami;fillColor=#F58534;gradientColor=none;" parent="1" vertex="1">
                    <mxGeometry x="-854.52" y="438.5" width="46.52" height="51" as="geometry"/>
                </mxCell>
                <mxCell id="83Sx4xnXRW2-ucipicmq-57" value="AMI image" style="text;html=1;align=center;verticalAlign=middle;resizable=0;points=[];autosize=1;strokeColor=none;fillColor=none;" parent="1" vertex="1">
                    <mxGeometry x="-782.0900000000001" y="449" width="80" height="30" as="geometry"/>
                </mxCell>
                <mxCell id="83Sx4xnXRW2-ucipicmq-58" value="Public subnet" style="points=[[0,0],[0.25,0],[0.5,0],[0.75,0],[1,0],[1,0.25],[1,0.5],[1,0.75],[1,1],[0.75,1],[0.5,1],[0.25,1],[0,1],[0,0.75],[0,0.5],[0,0.25]];outlineConnect=0;gradientColor=none;html=1;whiteSpace=wrap;fontSize=12;fontStyle=0;container=1;pointerEvents=0;collapsible=0;recursiveResize=0;shape=mxgraph.aws4.group;grIcon=mxgraph.aws4.group_security_group;grStroke=0;strokeColor=#7AA116;fillColor=#F2F6E8;verticalAlign=top;align=left;spacingLeft=30;fontColor=#248814;dashed=0;" parent="1" vertex="1">
                    <mxGeometry x="-860" y="798.5" width="103" height="50" as="geometry"/>
                </mxCell>
                <mxCell id="83Sx4xnXRW2-ucipicmq-60" value="Internet gateway" style="text;html=1;align=center;verticalAlign=middle;resizable=0;points=[];autosize=1;strokeColor=none;fillColor=none;" parent="1" vertex="1">
                    <mxGeometry x="-793" y="865" width="110" height="30" as="geometry"/>
                </mxCell>
                <mxCell id="83Sx4xnXRW2-ucipicmq-61" value="" style="sketch=0;outlineConnect=0;fontColor=#232F3E;gradientColor=none;fillColor=#8C4FFF;strokeColor=none;dashed=0;verticalLabelPosition=bottom;verticalAlign=top;align=center;html=1;fontSize=12;fontStyle=0;aspect=fixed;pointerEvents=1;shape=mxgraph.aws4.internet_gateway;" parent="1" vertex="1">
                    <mxGeometry x="-855.52" y="860" width="40" height="40" as="geometry"/>
                </mxCell>
            </root>
        </mxGraphModel>
    </diagram>
    <diagram id="rz7nFzOFOf8pmhmHyJon" name="DNS">
        <mxGraphModel dx="766" dy="-515" grid="1" gridSize="10" guides="1" tooltips="1" connect="1" arrows="1" fold="1" page="1" pageScale="1" pageWidth="850" pageHeight="1100" math="0" shadow="0">
            <root>
                <mxCell id="0"/>
                <mxCell id="1" parent="0"/>
                <mxCell id="wk50AKVddkjHc5tvXE9c-1" value="" style="group" parent="1" vertex="1" connectable="0">
                    <mxGeometry x="1030" y="1310" width="540" height="770" as="geometry"/>
                </mxCell>
                <mxCell id="wk50AKVddkjHc5tvXE9c-2" value="" style="rounded=0;whiteSpace=wrap;html=1;" parent="wk50AKVddkjHc5tvXE9c-1" vertex="1">
                    <mxGeometry width="540" height="770" as="geometry"/>
                </mxCell>
                <mxCell id="wk50AKVddkjHc5tvXE9c-3" value="Takes a query for example.com" style="strokeWidth=2;html=1;shape=mxgraph.flowchart.start_1;whiteSpace=wrap;" parent="wk50AKVddkjHc5tvXE9c-1" vertex="1">
                    <mxGeometry x="220" y="89.5" width="100" height="60" as="geometry"/>
                </mxCell>
                <mxCell id="wk50AKVddkjHc5tvXE9c-4" style="edgeStyle=orthogonalEdgeStyle;rounded=0;orthogonalLoop=1;jettySize=auto;html=1;entryX=0.5;entryY=0;entryDx=0;entryDy=0;entryPerimeter=0;" parent="wk50AKVddkjHc5tvXE9c-1" source="wk50AKVddkjHc5tvXE9c-3" target="wk50AKVddkjHc5tvXE9c-5" edge="1">
                    <mxGeometry relative="1" as="geometry">
                        <mxPoint x="270" y="184" as="targetPoint"/>
                    </mxGeometry>
                </mxCell>
                <mxCell id="wk50AKVddkjHc5tvXE9c-5" value="checks domain in&lt;div data--h-bstatus=&quot;0OBSERVED&quot;&gt;redis cache&lt;/div&gt;" style="strokeWidth=2;html=1;shape=mxgraph.flowchart.decision;whiteSpace=wrap;" parent="wk50AKVddkjHc5tvXE9c-1" vertex="1">
                    <mxGeometry x="202" y="179.5" width="136" height="100" as="geometry"/>
                </mxCell>
                <mxCell id="wk50AKVddkjHc5tvXE9c-6" value="return 0.0.0.0&lt;br data--h-bstatus=&quot;0OBSERVED&quot;&gt;(block domain)" style="strokeWidth=2;html=1;shape=mxgraph.flowchart.start_1;whiteSpace=wrap;" parent="wk50AKVddkjHc5tvXE9c-1" vertex="1">
                    <mxGeometry x="20" y="679.5" width="100" height="60" as="geometry"/>
                </mxCell>
                <mxCell id="wk50AKVddkjHc5tvXE9c-7" style="edgeStyle=orthogonalEdgeStyle;rounded=0;orthogonalLoop=1;jettySize=auto;html=1;entryX=0.5;entryY=0;entryDx=0;entryDy=0;entryPerimeter=0;" parent="wk50AKVddkjHc5tvXE9c-1" target="wk50AKVddkjHc5tvXE9c-6" edge="1">
                    <mxGeometry relative="1" as="geometry">
                        <mxPoint x="200" y="229.5" as="sourcePoint"/>
                        <Array as="points">
                            <mxPoint x="70" y="229.5"/>
                        </Array>
                    </mxGeometry>
                </mxCell>
                <mxCell id="wk50AKVddkjHc5tvXE9c-8" value="redis get example.com == &quot;1&quot;" style="edgeLabel;html=1;align=center;verticalAlign=middle;resizable=0;points=[];" parent="wk50AKVddkjHc5tvXE9c-7" vertex="1" connectable="0">
                    <mxGeometry x="-0.5328" y="2" relative="1" as="geometry">
                        <mxPoint x="48" y="-26" as="offset"/>
                    </mxGeometry>
                </mxCell>
                <mxCell id="wk50AKVddkjHc5tvXE9c-9" style="edgeStyle=orthogonalEdgeStyle;rounded=0;orthogonalLoop=1;jettySize=auto;html=1;" parent="wk50AKVddkjHc5tvXE9c-1" source="wk50AKVddkjHc5tvXE9c-13" edge="1">
                    <mxGeometry relative="1" as="geometry">
                        <mxPoint x="70" y="388.5" as="targetPoint"/>
                    </mxGeometry>
                </mxCell>
                <mxCell id="wk50AKVddkjHc5tvXE9c-10" value="if domain is blocked" style="edgeLabel;html=1;align=center;verticalAlign=middle;resizable=0;points=[];" parent="wk50AKVddkjHc5tvXE9c-9" vertex="1" connectable="0">
                    <mxGeometry x="-0.0835" y="-1" relative="1" as="geometry">
                        <mxPoint x="1" as="offset"/>
                    </mxGeometry>
                </mxCell>
                <mxCell id="wk50AKVddkjHc5tvXE9c-11" style="edgeStyle=orthogonalEdgeStyle;rounded=0;orthogonalLoop=1;jettySize=auto;html=1;entryX=0.5;entryY=0;entryDx=0;entryDy=0;" parent="wk50AKVddkjHc5tvXE9c-1" source="wk50AKVddkjHc5tvXE9c-13" target="wk50AKVddkjHc5tvXE9c-21" edge="1">
                    <mxGeometry relative="1" as="geometry">
                        <mxPoint x="455.0000000000002" y="509.5" as="targetPoint"/>
                    </mxGeometry>
                </mxCell>
                <mxCell id="wk50AKVddkjHc5tvXE9c-12" value="domain is allowed" style="edgeLabel;html=1;align=center;verticalAlign=middle;resizable=0;points=[];" parent="wk50AKVddkjHc5tvXE9c-11" vertex="1" connectable="0">
                    <mxGeometry x="0.1225" y="-1" relative="1" as="geometry">
                        <mxPoint y="1" as="offset"/>
                    </mxGeometry>
                </mxCell>
                <mxCell id="wk50AKVddkjHc5tvXE9c-13" value="checks domain in&lt;div data--h-bstatus=&quot;0OBSERVED&quot;&gt;main db&amp;nbsp;&lt;/div&gt;" style="strokeWidth=2;html=1;shape=mxgraph.flowchart.decision;whiteSpace=wrap;" parent="wk50AKVddkjHc5tvXE9c-1" vertex="1">
                    <mxGeometry x="205" y="338.5" width="130" height="100" as="geometry"/>
                </mxCell>
                <mxCell id="wk50AKVddkjHc5tvXE9c-14" style="edgeStyle=orthogonalEdgeStyle;rounded=0;orthogonalLoop=1;jettySize=auto;html=1;entryX=0.5;entryY=0;entryDx=0;entryDy=0;entryPerimeter=0;" parent="wk50AKVddkjHc5tvXE9c-1" source="wk50AKVddkjHc5tvXE9c-5" target="wk50AKVddkjHc5tvXE9c-13" edge="1">
                    <mxGeometry relative="1" as="geometry"/>
                </mxCell>
                <mxCell id="wk50AKVddkjHc5tvXE9c-15" value="redis get example.com == &quot;0&quot;" style="edgeLabel;html=1;align=center;verticalAlign=middle;resizable=0;points=[];" parent="wk50AKVddkjHc5tvXE9c-14" vertex="1" connectable="0">
                    <mxGeometry x="-0.1204" y="-1" relative="1" as="geometry">
                        <mxPoint as="offset"/>
                    </mxGeometry>
                </mxCell>
                <mxCell id="wk50AKVddkjHc5tvXE9c-16" style="edgeStyle=orthogonalEdgeStyle;rounded=0;orthogonalLoop=1;jettySize=auto;html=1;" parent="wk50AKVddkjHc5tvXE9c-1" source="wk50AKVddkjHc5tvXE9c-18" edge="1">
                    <mxGeometry relative="1" as="geometry">
                        <mxPoint x="70" y="559.5" as="targetPoint"/>
                    </mxGeometry>
                </mxCell>
                <mxCell id="wk50AKVddkjHc5tvXE9c-17" value="domain is blocked" style="edgeLabel;html=1;align=center;verticalAlign=middle;resizable=0;points=[];" parent="wk50AKVddkjHc5tvXE9c-16" vertex="1" connectable="0">
                    <mxGeometry x="-0.1916" y="-1" relative="1" as="geometry">
                        <mxPoint as="offset"/>
                    </mxGeometry>
                </mxCell>
                <mxCell id="wk50AKVddkjHc5tvXE9c-18" value="checks domain from&lt;div data--h-bstatus=&quot;0OBSERVED&quot;&gt;opendns&lt;/div&gt;" style="strokeWidth=2;html=1;shape=mxgraph.flowchart.decision;whiteSpace=wrap;" parent="wk50AKVddkjHc5tvXE9c-1" vertex="1">
                    <mxGeometry x="205" y="509.5" width="130" height="100" as="geometry"/>
                </mxCell>
                <mxCell id="wk50AKVddkjHc5tvXE9c-19" style="edgeStyle=orthogonalEdgeStyle;rounded=0;orthogonalLoop=1;jettySize=auto;html=1;entryX=0.5;entryY=0;entryDx=0;entryDy=0;entryPerimeter=0;" parent="wk50AKVddkjHc5tvXE9c-1" source="wk50AKVddkjHc5tvXE9c-13" target="wk50AKVddkjHc5tvXE9c-18" edge="1">
                    <mxGeometry relative="1" as="geometry"/>
                </mxCell>
                <mxCell id="wk50AKVddkjHc5tvXE9c-20" value="domain doesn&#39;t exist in db" style="edgeLabel;html=1;align=center;verticalAlign=middle;resizable=0;points=[];" parent="wk50AKVddkjHc5tvXE9c-19" vertex="1" connectable="0">
                    <mxGeometry x="-0.1816" y="-1" relative="1" as="geometry">
                        <mxPoint as="offset"/>
                    </mxGeometry>
                </mxCell>
                <mxCell id="wk50AKVddkjHc5tvXE9c-21" value="get domain records from any public dns server" style="rounded=1;whiteSpace=wrap;html=1;absoluteArcSize=1;arcSize=14;strokeWidth=2;" parent="wk50AKVddkjHc5tvXE9c-1" vertex="1">
                    <mxGeometry x="410" y="519.5" width="100" height="100" as="geometry"/>
                </mxCell>
                <mxCell id="wk50AKVddkjHc5tvXE9c-22" value="returns domain records normally" style="strokeWidth=2;html=1;shape=mxgraph.flowchart.start_1;whiteSpace=wrap;" parent="wk50AKVddkjHc5tvXE9c-1" vertex="1">
                    <mxGeometry x="220" y="679.5" width="100" height="60" as="geometry"/>
                </mxCell>
                <mxCell id="wk50AKVddkjHc5tvXE9c-23" style="edgeStyle=orthogonalEdgeStyle;rounded=0;orthogonalLoop=1;jettySize=auto;html=1;entryX=0.5;entryY=0;entryDx=0;entryDy=0;entryPerimeter=0;" parent="wk50AKVddkjHc5tvXE9c-1" source="wk50AKVddkjHc5tvXE9c-18" target="wk50AKVddkjHc5tvXE9c-22" edge="1">
                    <mxGeometry relative="1" as="geometry"/>
                </mxCell>
                <mxCell id="wk50AKVddkjHc5tvXE9c-24" value="domain is ok" style="edgeLabel;html=1;align=center;verticalAlign=middle;resizable=0;points=[];" parent="wk50AKVddkjHc5tvXE9c-23" vertex="1" connectable="0">
                    <mxGeometry x="-0.2195" relative="1" as="geometry">
                        <mxPoint as="offset"/>
                    </mxGeometry>
                </mxCell>
                <mxCell id="wk50AKVddkjHc5tvXE9c-25" style="edgeStyle=orthogonalEdgeStyle;rounded=0;orthogonalLoop=1;jettySize=auto;html=1;entryX=1;entryY=0.5;entryDx=0;entryDy=0;entryPerimeter=0;" parent="wk50AKVddkjHc5tvXE9c-1" source="wk50AKVddkjHc5tvXE9c-21" target="wk50AKVddkjHc5tvXE9c-22" edge="1">
                    <mxGeometry relative="1" as="geometry"/>
                </mxCell>
                <mxCell id="wk50AKVddkjHc5tvXE9c-26" value="DNS Resolver" style="text;html=1;align=center;verticalAlign=middle;resizable=0;points=[];autosize=1;strokeColor=none;fillColor=none;fontSize=19;fontStyle=1" parent="wk50AKVddkjHc5tvXE9c-1" vertex="1">
                    <mxGeometry x="210" y="30" width="140" height="40" as="geometry"/>
                </mxCell>
                <mxCell id="wk50AKVddkjHc5tvXE9c-27" value="" style="group" parent="1" vertex="1" connectable="0">
                    <mxGeometry x="490" y="1310" width="480" height="325" as="geometry"/>
                </mxCell>
                <mxCell id="wk50AKVddkjHc5tvXE9c-28" value="" style="rounded=0;whiteSpace=wrap;html=1;" parent="wk50AKVddkjHc5tvXE9c-27" vertex="1">
                    <mxGeometry y="-0.0016062176165796416" width="480" height="322.7979274611399" as="geometry"/>
                </mxCell>
                <mxCell id="wk50AKVddkjHc5tvXE9c-29" value="DNS-ADMIN design" style="text;html=1;align=center;verticalAlign=middle;resizable=0;points=[];autosize=1;strokeColor=none;fillColor=none;fontSize=19;fontStyle=1" parent="wk50AKVddkjHc5tvXE9c-27" vertex="1">
                    <mxGeometry x="95.00444444444446" y="18.443989637305698" width="190" height="40" as="geometry"/>
                </mxCell>
                <mxCell id="wk50AKVddkjHc5tvXE9c-30" value="&lt;div data--h-bstatus=&quot;0OBSERVED&quot;&gt;&lt;span data--h-bstatus=&quot;0OBSERVED&quot; style=&quot;font-size: 16px;&quot;&gt;&lt;b data--h-bstatus=&quot;0OBSERVED&quot;&gt;Domain&lt;/b&gt;&lt;/span&gt;&lt;/div&gt;&lt;div data--h-bstatus=&quot;0OBSERVED&quot;&gt;&lt;span data--h-bstatus=&quot;0OBSERVED&quot; style=&quot;font-size: 16px;&quot;&gt;&lt;b data--h-bstatus=&quot;0OBSERVED&quot;&gt;&lt;br data--h-bstatus=&quot;0OBSERVED&quot;&gt;&lt;/b&gt;&lt;/span&gt;&lt;/div&gt;&lt;div data--h-bstatus=&quot;0OBSERVED&quot;&gt;{&lt;/div&gt;&lt;div data--h-bstatus=&quot;0OBSERVED&quot;&gt;&lt;span data--h-bstatus=&quot;0OBSERVED&quot; style=&quot;white-space: pre;&quot;&gt;&#x9;&lt;/span&gt;domain (primary key): domain,&lt;br data--h-bstatus=&quot;0OBSERVED&quot;&gt;&lt;/div&gt;&lt;div data--h-bstatus=&quot;0OBSERVED&quot;&gt;&lt;span data--h-bstatus=&quot;0OBSERVED&quot; style=&quot;white-space: pre;&quot;&gt;&#x9;&lt;/span&gt;block: int, (0 = allow, 1 = low, 2 = high)&lt;br data--h-bstatus=&quot;0OBSERVED&quot;&gt;&lt;/div&gt;&lt;div data--h-bstatus=&quot;0OBSERVED&quot;&gt;&lt;span style=&quot;background-color: transparent; white-space-collapse: preserve;&quot;&gt;&#x9;&lt;/span&gt;&lt;span style=&quot;background-color: transparent;&quot;&gt;[key: int] : [&lt;/span&gt;&lt;/div&gt;&lt;div data--h-bstatus=&quot;0OBSERVED&quot;&gt;&lt;span style=&quot;background-color: transparent; white-space-collapse: preserve;&quot; data--h-bstatus=&quot;0OBSERVED&quot;&gt;&lt;span data--h-bstatus=&quot;0OBSERVED&quot; style=&quot;white-space-collapse: preserve;&quot;&gt;&#x9;&#x9;&lt;/span&gt;{&lt;/span&gt;&lt;/div&gt;&lt;div data--h-bstatus=&quot;0OBSERVED&quot;&gt;&lt;span style=&quot;background-color: transparent; white-space-collapse: preserve;&quot; data--h-bstatus=&quot;0OBSERVED&quot;&gt;&#x9;&lt;/span&gt;&lt;span style=&quot;background-color: transparent; white-space-collapse: preserve;&quot; data--h-bstatus=&quot;0OBSERVED&quot;&gt;&#x9;&lt;span style=&quot;white-space: pre;&quot;&gt;&#x9;&lt;/span&gt;&lt;/span&gt;&lt;span style=&quot;background-color: transparent;&quot;&gt;answer: string,&lt;/span&gt;&lt;/div&gt;&lt;div data--h-bstatus=&quot;0OBSERVED&quot;&gt;&lt;span style=&quot;white-space: pre;&quot;&gt;&#x9;&lt;/span&gt;&lt;span style=&quot;white-space: pre;&quot;&gt;&#x9;&lt;span style=&quot;white-space: pre;&quot;&gt;&#x9;&lt;/span&gt;&lt;/span&gt;ttl: integer&lt;br&gt;&lt;/div&gt;&lt;div data--h-bstatus=&quot;0OBSERVED&quot;&gt;&lt;/div&gt;&lt;div data--h-bstatus=&quot;0OBSERVED&quot;&gt;&lt;/div&gt;&lt;div data--h-bstatus=&quot;0OBSERVED&quot;&gt;&lt;span data--h-bstatus=&quot;0OBSERVED&quot; style=&quot;white-space: pre;&quot;&gt;&lt;span data--h-bstatus=&quot;0OBSERVED&quot; style=&quot;white-space: pre;&quot;&gt;&lt;span data--h-bstatus=&quot;0OBSERVED&quot; style=&quot;white-space: pre;&quot;&gt;&#x9;&lt;span data--h-bstatus=&quot;0OBSERVED&quot; style=&quot;white-space: pre;&quot;&gt;&#x9;&lt;/span&gt;&lt;/span&gt;}&#x9;&lt;/span&gt;&#x9;&lt;/span&gt;&lt;/div&gt;&lt;div data--h-bstatus=&quot;0OBSERVED&quot;&gt;&lt;span data--h-bstatus=&quot;0OBSERVED&quot; style=&quot;white-space: pre;&quot;&gt;&#x9;&lt;/span&gt;],&lt;/div&gt;&lt;div data--h-bstatus=&quot;0OBSERVED&quot;&gt;&lt;span data--h-bstatus=&quot;0OBSERVED&quot; style=&quot;white-space: pre;&quot;&gt;&#x9;&lt;/span&gt;createdAt: Date,&lt;br data--h-bstatus=&quot;0OBSERVED&quot;&gt;&lt;/div&gt;&lt;div data--h-bstatus=&quot;0OBSERVED&quot;&gt;&lt;span data--h-bstatus=&quot;0OBSERVED&quot; style=&quot;white-space: pre;&quot;&gt;&#x9;&lt;/span&gt;updatedAt: Date,&lt;br data--h-bstatus=&quot;0OBSERVED&quot;&gt;&lt;/div&gt;&lt;div data--h-bstatus=&quot;0OBSERVED&quot;&gt;}&lt;/div&gt;" style="text;html=1;align=left;verticalAlign=middle;resizable=0;points=[];autosize=1;strokeColor=none;fillColor=none;" parent="wk50AKVddkjHc5tvXE9c-27" vertex="1">
                    <mxGeometry x="230" y="73.78077720207254" width="250" height="220" as="geometry"/>
                </mxCell>
                <mxCell id="wk50AKVddkjHc5tvXE9c-31" value="&lt;div data--h-bstatus=&quot;0OBSERVED&quot;&gt;&lt;br data--h-bstatus=&quot;0OBSERVED&quot;&gt;&lt;/div&gt;&lt;div data--h-bstatus=&quot;0OBSERVED&quot;&gt;&lt;span style=&quot;background-color: transparent; color: light-dark(rgb(0, 0, 0), rgb(255, 255, 255));&quot;&gt;block or allow a domain&lt;/span&gt;&lt;/div&gt;&lt;div data--h-bstatus=&quot;0OBSERVED&quot;&gt;&lt;span data--h-bstatus=&quot;0OBSERVED&quot; style=&quot;background-color: transparent; color: light-dark(rgb(0, 0, 0), rgb(255, 255, 255));&quot;&gt;/:domain?{block}&lt;/span&gt;&lt;/div&gt;&lt;div data--h-bstatus=&quot;0OBSERVED&quot;&gt;POST&lt;/div&gt;&lt;div data--h-bstatus=&quot;0OBSERVED&quot;&gt;response: 200 ok&lt;/div&gt;&lt;div data--h-bstatus=&quot;0OBSERVED&quot;&gt;&lt;br data--h-bstatus=&quot;0OBSERVED&quot;&gt;&lt;/div&gt;&lt;div data--h-bstatus=&quot;0OBSERVED&quot;&gt;&lt;span data--h-bstatus=&quot;0OBSERVED&quot; style=&quot;background-color: transparent; color: light-dark(rgb(0, 0, 0), rgb(255, 255, 255));&quot;&gt;get domain&lt;/span&gt;&lt;/div&gt;&lt;div data--h-bstatus=&quot;0OBSERVED&quot;&gt;&lt;span data--h-bstatus=&quot;0OBSERVED&quot; style=&quot;background-color: transparent; color: light-dark(rgb(0, 0, 0), rgb(255, 255, 255));&quot;&gt;/:domain&lt;/span&gt;&lt;/div&gt;&lt;div data--h-bstatus=&quot;0OBSERVED&quot;&gt;GET&lt;/div&gt;&lt;div data--h-bstatus=&quot;0OBSERVED&quot;&gt;response: 200 ok Domain&lt;/div&gt;&lt;div data--h-bstatus=&quot;0OBSERVED&quot;&gt;&lt;br data--h-bstatus=&quot;0OBSERVED&quot;&gt;&lt;/div&gt;&lt;div data--h-bstatus=&quot;0OBSERVED&quot;&gt;&lt;span data--h-bstatus=&quot;0OBSERVED&quot; style=&quot;background-color: transparent; color: light-dark(rgb(0, 0, 0), rgb(255, 255, 255));&quot;&gt;update domain object&lt;/span&gt;&lt;/div&gt;&lt;div data--h-bstatus=&quot;0OBSERVED&quot;&gt;/:domain&lt;/div&gt;&lt;div data--h-bstatus=&quot;0OBSERVED&quot;&gt;PUT&lt;/div&gt;&lt;div data--h-bstatus=&quot;0OBSERVED&quot;&gt;response: 200 ok Domain&lt;/div&gt;" style="text;html=1;align=left;verticalAlign=middle;resizable=0;points=[];autosize=1;strokeColor=none;fillColor=none;" parent="wk50AKVddkjHc5tvXE9c-27" vertex="1">
                    <mxGeometry x="40" y="69.16937823834196" width="160" height="230" as="geometry"/>
                </mxCell>
                <mxCell id="wk50AKVddkjHc5tvXE9c-32" value="" style="group" parent="1" vertex="1" connectable="0">
                    <mxGeometry x="320" y="1660" width="650" height="595" as="geometry"/>
                </mxCell>
                <mxCell id="wk50AKVddkjHc5tvXE9c-33" value="" style="rounded=0;whiteSpace=wrap;html=1;" parent="wk50AKVddkjHc5tvXE9c-32" vertex="1">
                    <mxGeometry width="646.31" height="590" as="geometry"/>
                </mxCell>
                <mxCell id="wk50AKVddkjHc5tvXE9c-34" value="DNS Logs schema" style="text;html=1;align=center;verticalAlign=middle;resizable=0;points=[];autosize=1;strokeColor=none;fillColor=none;fontSize=19;fontStyle=1" parent="wk50AKVddkjHc5tvXE9c-32" vertex="1">
                    <mxGeometry x="259.9984343434344" y="10.003981093223457" width="180" height="40" as="geometry"/>
                </mxCell>
                <mxCell id="wk50AKVddkjHc5tvXE9c-35" value="&lt;div data--h-bstatus=&quot;0OBSERVED&quot;&gt;&lt;div data--h-bstatus=&quot;0OBSERVED&quot;&gt;&lt;span style=&quot;background-color: transparent;&quot;&gt;&lt;span style=&quot;font-size: 16px;&quot;&gt;&lt;b&gt;SourceSchema&lt;/b&gt;&lt;/span&gt;&lt;/span&gt;&lt;/div&gt;&lt;div data--h-bstatus=&quot;0OBSERVED&quot;&gt;&lt;br&gt;&lt;/div&gt;&lt;div data--h-bstatus=&quot;0OBSERVED&quot;&gt;&lt;span style=&quot;background-color: transparent;&quot;&gt;this object should be sent with every log, it acts like&lt;/span&gt;&lt;/div&gt;&lt;div data--h-bstatus=&quot;0OBSERVED&quot;&gt;the identifier of the request&lt;/div&gt;&lt;div data--h-bstatus=&quot;0OBSERVED&quot;&gt;&lt;br&gt;&lt;/div&gt;&lt;div data--h-bstatus=&quot;0OBSERVED&quot;&gt;SourceSchema: {&lt;/div&gt;&lt;div data--h-bstatus=&quot;0OBSERVED&quot;&gt;&lt;span style=&quot;white-space: pre;&quot;&gt;&#x9;&lt;/span&gt;ip: string,&lt;br&gt;&lt;/div&gt;&lt;div data--h-bstatus=&quot;0OBSERVED&quot;&gt;&lt;span style=&quot;white-space: pre;&quot;&gt;&#x9;&lt;/span&gt;port: number&lt;br&gt;&lt;/div&gt;&lt;div data--h-bstatus=&quot;0OBSERVED&quot;&gt;}&lt;/div&gt;&lt;/div&gt;&lt;div data--h-bstatus=&quot;0OBSERVED&quot;&gt;&lt;span style=&quot;font-size: 16px;&quot;&gt;&lt;b&gt;&lt;br&gt;&lt;/b&gt;&lt;/span&gt;&lt;/div&gt;&lt;div data--h-bstatus=&quot;0OBSERVED&quot;&gt;&lt;span style=&quot;font-size: 16px;&quot;&gt;&lt;b&gt;On request start&lt;/b&gt;&lt;/span&gt;&lt;/div&gt;&lt;div data--h-bstatus=&quot;0OBSERVED&quot;&gt;tag: mafazaa.ainaa.dns.req&lt;/div&gt;&lt;div data--h-bstatus=&quot;0OBSERVED&quot;&gt;this log should be sent to fluentd on the start of the&amp;nbsp;&lt;/div&gt;&lt;div data--h-bstatus=&quot;0OBSERVED&quot;&gt;request&lt;/div&gt;&lt;div data--h-bstatus=&quot;0OBSERVED&quot;&gt;&lt;br&gt;&lt;/div&gt;&lt;div data--h-bstatus=&quot;0OBSERVED&quot;&gt;schema: {&lt;/div&gt;&lt;div data--h-bstatus=&quot;0OBSERVED&quot;&gt;&lt;span style=&quot;white-space: pre;&quot;&gt;&#x9;&lt;/span&gt;...sourceSchema,&lt;br&gt;&lt;/div&gt;&lt;div data--h-bstatus=&quot;0OBSERVED&quot;&gt;&lt;span style=&quot;white-space: pre;&quot;&gt;&#x9;&lt;/span&gt;dns_query: {&lt;/div&gt;&lt;div data--h-bstatus=&quot;0OBSERVED&quot;&gt;&lt;span style=&quot;white-space: pre;&quot;&gt;&#x9;&lt;span style=&quot;white-space: pre;&quot;&gt;&#x9;&lt;/span&gt;qname: string,&lt;/span&gt;&lt;/div&gt;&lt;div data--h-bstatus=&quot;0OBSERVED&quot;&gt;&lt;span style=&quot;white-space: pre;&quot;&gt;&#x9;&lt;/span&gt;&lt;span style=&quot;white-space: pre;&quot;&gt;&#x9;&lt;/span&gt;type: number&lt;br&gt;&lt;/div&gt;&lt;div data--h-bstatus=&quot;0OBSERVED&quot;&gt;&lt;span style=&quot;white-space: pre;&quot;&gt;&#x9;&lt;/span&gt;}&lt;/div&gt;&lt;div data--h-bstatus=&quot;0OBSERVED&quot;&gt;}&lt;/div&gt;&lt;div data--h-bstatus=&quot;0OBSERVED&quot;&gt;&lt;div data--h-bstatus=&quot;0OBSERVED&quot;&gt;&lt;br&gt;&lt;/div&gt;&lt;div data--h-bstatus=&quot;0OBSERVED&quot;&gt;&lt;div style=&quot;color: rgb(63, 63, 63);&quot; data--h-bstatus=&quot;0OBSERVED&quot;&gt;&lt;span style=&quot;font-size: 16px;&quot;&gt;&lt;b&gt;On error&lt;/b&gt;&lt;/span&gt;&lt;/div&gt;&lt;div style=&quot;color: rgb(63, 63, 63);&quot; data--h-bstatus=&quot;0OBSERVED&quot;&gt;tag: mafazaa.ainaa.dns.err&lt;/div&gt;&lt;div style=&quot;color: rgb(63, 63, 63);&quot; data--h-bstatus=&quot;0OBSERVED&quot;&gt;this log should be sent after getting an error&lt;/div&gt;&lt;div style=&quot;color: rgb(63, 63, 63);&quot; data--h-bstatus=&quot;0OBSERVED&quot;&gt;&lt;br&gt;&lt;/div&gt;&lt;div style=&quot;color: rgb(63, 63, 63);&quot; data--h-bstatus=&quot;0OBSERVED&quot;&gt;schema: {&lt;/div&gt;&lt;div style=&quot;color: rgb(63, 63, 63);&quot; data--h-bstatus=&quot;0OBSERVED&quot;&gt;&lt;span style=&quot;white-space-collapse: preserve;&quot;&gt;&#x9;&lt;/span&gt;...sourceSchema,&lt;br&gt;&lt;/div&gt;&lt;div style=&quot;color: rgb(63, 63, 63);&quot; data--h-bstatus=&quot;0OBSERVED&quot;&gt;&lt;span style=&quot;white-space-collapse: preserve;&quot;&gt;&#x9;&lt;/span&gt;error: string&lt;/div&gt;&lt;div style=&quot;color: rgb(63, 63, 63);&quot; data--h-bstatus=&quot;0OBSERVED&quot;&gt;}&lt;/div&gt;&lt;/div&gt;&lt;/div&gt;&lt;div data--h-bstatus=&quot;0OBSERVED&quot;&gt;&lt;br&gt;&lt;/div&gt;" style="text;html=1;align=left;verticalAlign=middle;resizable=0;points=[];autosize=1;strokeColor=none;fillColor=none;" parent="wk50AKVddkjHc5tvXE9c-32" vertex="1">
                    <mxGeometry x="29.997727272727275" y="86.00073449803469" width="300" height="490" as="geometry"/>
                </mxCell>
                <mxCell id="wk50AKVddkjHc5tvXE9c-36" value="&lt;div data--h-bstatus=&quot;0OBSERVED&quot;&gt;&lt;div data--h-bstatus=&quot;0OBSERVED&quot;&gt;&lt;div style=&quot;color: rgb(63, 63, 63);&quot; data--h-bstatus=&quot;0OBSERVED&quot;&gt;&lt;span style=&quot;font-size: 16px;&quot;&gt;&lt;b&gt;On response&lt;/b&gt;&lt;/span&gt;&lt;/div&gt;&lt;div style=&quot;color: rgb(63, 63, 63);&quot; data--h-bstatus=&quot;0OBSERVED&quot;&gt;tag: mafazaa.ainaa.dns.res&lt;/div&gt;&lt;div style=&quot;color: rgb(63, 63, 63);&quot; data--h-bstatus=&quot;0OBSERVED&quot;&gt;this log should be sent on the end of the request&amp;nbsp;&lt;/div&gt;&lt;div style=&quot;color: rgb(63, 63, 63);&quot; data--h-bstatus=&quot;0OBSERVED&quot;&gt;after getting a successfull response! this helps to&amp;nbsp;&lt;/div&gt;&lt;div style=&quot;color: rgb(63, 63, 63);&quot; data--h-bstatus=&quot;0OBSERVED&quot;&gt;determine which requests are getting to the end and&lt;/div&gt;&lt;div style=&quot;color: rgb(63, 63, 63);&quot; data--h-bstatus=&quot;0OBSERVED&quot;&gt;which are having errors in the middle and doesn&#39;t&amp;nbsp;&lt;/div&gt;&lt;div style=&quot;color: rgb(63, 63, 63);&quot; data--h-bstatus=&quot;0OBSERVED&quot;&gt;complete&amp;nbsp;&lt;/div&gt;&lt;div style=&quot;color: rgb(63, 63, 63);&quot; data--h-bstatus=&quot;0OBSERVED&quot;&gt;&lt;br&gt;&lt;/div&gt;&lt;div style=&quot;color: rgb(63, 63, 63);&quot; data--h-bstatus=&quot;0OBSERVED&quot;&gt;schema: {&lt;/div&gt;&lt;div style=&quot;color: rgb(63, 63, 63);&quot; data--h-bstatus=&quot;0OBSERVED&quot;&gt;&lt;span style=&quot;white-space-collapse: preserve;&quot;&gt;&#x9;&lt;/span&gt;...sourceSchema,&lt;br&gt;&lt;/div&gt;&lt;div style=&quot;color: rgb(63, 63, 63);&quot; data--h-bstatus=&quot;0OBSERVED&quot;&gt;&lt;span style=&quot;white-space-collapse: preserve;&quot;&gt;&#x9;&lt;/span&gt;response: {&lt;/div&gt;&lt;div style=&quot;color: rgb(63, 63, 63);&quot; data--h-bstatus=&quot;0OBSERVED&quot;&gt;&lt;span style=&quot;white-space-collapse: preserve;&quot;&gt;&#x9;&lt;span style=&quot;white-space-collapse: preserve;&quot;&gt;&#x9;&lt;/span&gt;block:&lt;/span&gt;&amp;nbsp;bool&lt;span style=&quot;white-space-collapse: preserve;&quot;&gt; ,&lt;/span&gt;&lt;/div&gt;&lt;div style=&quot;color: rgb(63, 63, 63);&quot; data--h-bstatus=&quot;0OBSERVED&quot;&gt;&lt;span style=&quot;white-space-collapse: preserve;&quot;&gt;&#x9;&lt;/span&gt;&lt;span style=&quot;white-space-collapse: preserve;&quot;&gt;&#x9;&lt;/span&gt;block_regex: bool,&lt;br&gt;&lt;/div&gt;&lt;div style=&quot;color: rgb(63, 63, 63);&quot; data--h-bstatus=&quot;0OBSERVED&quot;&gt;&lt;span style=&quot;white-space-collapse: preserve;&quot;&gt;&#x9;&lt;/span&gt;&lt;span style=&quot;white-space-collapse: preserve;&quot;&gt;&#x9;&lt;/span&gt;upstream: ip,&lt;br&gt;&lt;/div&gt;&lt;div style=&quot;color: rgb(63, 63, 63);&quot; data--h-bstatus=&quot;0OBSERVED&quot;&gt;&lt;span style=&quot;white-space-collapse: preserve;&quot;&gt;&#x9;&lt;/span&gt;&lt;span style=&quot;white-space-collapse: preserve;&quot;&gt;&#x9;&lt;/span&gt;google_regex: bool,&lt;br&gt;&lt;/div&gt;&lt;div style=&quot;color: rgb(63, 63, 63);&quot; data--h-bstatus=&quot;0OBSERVED&quot;&gt;&lt;span style=&quot;white-space-collapse: preserve;&quot;&gt;&#x9;&lt;/span&gt;&lt;span style=&quot;white-space-collapse: preserve;&quot;&gt;&#x9;&lt;/span&gt;cache_hit: bool,&lt;br&gt;&lt;/div&gt;&lt;div style=&quot;color: rgb(63, 63, 63);&quot; data--h-bstatus=&quot;0OBSERVED&quot;&gt;&lt;span style=&quot;white-space-collapse: preserve;&quot;&gt;&#x9;&lt;/span&gt;&lt;span style=&quot;white-space-collapse: preserve;&quot;&gt;&#x9;&lt;/span&gt;answers: [&lt;/div&gt;&lt;div style=&quot;color: rgb(63, 63, 63);&quot; data--h-bstatus=&quot;0OBSERVED&quot;&gt;&lt;span style=&quot;white-space-collapse: preserve;&quot;&gt;&#x9;&lt;/span&gt;&lt;span style=&quot;white-space-collapse: preserve;&quot;&gt;&#x9;&lt;/span&gt;&lt;span style=&quot;white-space-collapse: preserve;&quot;&gt;&#x9;&lt;/span&gt;{&lt;/div&gt;&lt;div style=&quot;color: rgb(63, 63, 63);&quot; data--h-bstatus=&quot;0OBSERVED&quot;&gt;&lt;span style=&quot;white-space-collapse: preserve;&quot;&gt;&#x9;&lt;/span&gt;&lt;span style=&quot;white-space-collapse: preserve;&quot;&gt;&#x9;&lt;/span&gt;&lt;span style=&quot;white-space-collapse: preserve;&quot;&gt;&#x9;&lt;/span&gt;&lt;span style=&quot;white-space-collapse: preserve;&quot;&gt;&#x9;&lt;/span&gt;type: number,&lt;br&gt;&lt;/div&gt;&lt;div style=&quot;color: rgb(63, 63, 63);&quot; data--h-bstatus=&quot;0OBSERVED&quot;&gt;&lt;span style=&quot;white-space-collapse: preserve;&quot;&gt;&#x9;&lt;/span&gt;&lt;span style=&quot;white-space-collapse: preserve;&quot;&gt;&#x9;&lt;/span&gt;&lt;span style=&quot;white-space-collapse: preserve;&quot;&gt;&#x9;&lt;/span&gt;&lt;span style=&quot;white-space-collapse: preserve;&quot;&gt;&#x9;&lt;/span&gt;answer: string&lt;br&gt;&lt;/div&gt;&lt;div style=&quot;color: rgb(63, 63, 63);&quot; data--h-bstatus=&quot;0OBSERVED&quot;&gt;&lt;span style=&quot;white-space-collapse: preserve;&quot;&gt;&#x9;&lt;/span&gt;&lt;span style=&quot;white-space-collapse: preserve;&quot;&gt;&#x9;&lt;/span&gt;&lt;span style=&quot;white-space-collapse: preserve;&quot;&gt;&#x9;&lt;/span&gt;}&lt;/div&gt;&lt;div style=&quot;color: rgb(63, 63, 63);&quot; data--h-bstatus=&quot;0OBSERVED&quot;&gt;&lt;span style=&quot;white-space-collapse: preserve;&quot;&gt;&#x9;&lt;/span&gt;&lt;span style=&quot;white-space-collapse: preserve;&quot;&gt;&#x9;&lt;/span&gt;]&lt;br&gt;&lt;/div&gt;&lt;div style=&quot;color: rgb(63, 63, 63);&quot; data--h-bstatus=&quot;0OBSERVED&quot;&gt;&lt;span style=&quot;white-space-collapse: preserve;&quot;&gt;&#x9;&lt;/span&gt;}&lt;/div&gt;&lt;div style=&quot;color: rgb(63, 63, 63);&quot; data--h-bstatus=&quot;0OBSERVED&quot;&gt;}&lt;/div&gt;&lt;/div&gt;&lt;/div&gt;" style="text;html=1;align=left;verticalAlign=middle;resizable=0;points=[];autosize=1;strokeColor=none;fillColor=none;" parent="wk50AKVddkjHc5tvXE9c-32" vertex="1">
                    <mxGeometry x="331.9977272727273" y="80.00073449803472" width="300" height="360" as="geometry"/>
                </mxCell>
            </root>
        </mxGraphModel>
    </diagram>
</mxfile>